<svg width="1234" height="700" viewBox="0 0 1234 700" fill="none" xmlns="http://www.w3.org/2000/svg">
<rect width="1234" height="700" rx="40" fill="white"/>
<rect x="12" y="12" width="1210" height="676" rx="30" fill="#C7C7C7"/>
<path d="M560.738 337.5C571.094 337.5 579.488 329.105 579.488 318.75C579.488 308.395 571.094 300 560.738 300C550.383 300 541.988 308.395 541.988 318.75C541.988 329.105 550.383 337.5 560.738 337.5Z" fill="#E6E6E6"/>
<path d="M598.238 375L579.488 350L541.988 400H691.988L635.738 325L598.238 375Z" fill="#E6E6E6"/>
<path d="M716.988 250H516.988C503.201 250 491.988 261.212 491.988 275V425C491.988 438.788 503.201 450 516.988 450H716.988C730.776 450 741.988 438.788 741.988 425V275C741.988 261.212 730.776 250 716.988 250ZM516.988 425V275H716.988L717.013 425H516.988Z" fill="#E6E6E6"/>
</svg>
