<svg width="24" height="24" viewBox="0 0 24 24" fill="none" xmlns="http://www.w3.org/2000/svg">
<path d="M23.4173 10.5857L21.7805 8.94915C21.392 8.56067 21.0737 7.79296 21.0737 7.2424V4.9279C21.0737 3.82691 20.1742 2.92747 19.0735 2.92689H16.7581C16.2082 2.92689 15.4396 2.60796 15.051 2.21976L13.4145 0.58321C12.6369 -0.194403 11.3637 -0.194403 10.5861 0.58321L8.9495 2.22094C8.56066 2.60942 7.79119 2.92747 7.24245 2.92747H4.92795C3.82842 2.92747 2.92782 3.82691 2.92782 4.9279V7.24246C2.92782 7.79085 2.60953 8.56096 2.22099 8.94921L0.584137 10.5858C-0.194061 11.3634 -0.194061 12.6366 0.584137 13.4154L2.22099 15.052C2.60976 15.4405 2.92782 16.2103 2.92782 16.7587V19.0733C2.92782 20.1731 3.82842 21.0737 4.92795 21.0737H7.24251C7.79242 21.0737 8.56101 21.392 8.94955 21.7803L10.5861 23.4174C11.3637 24.1944 12.6369 24.1944 13.4145 23.4174L15.0511 21.7803C15.4399 21.3918 16.2082 21.0737 16.7581 21.0737H19.0736C20.1743 21.0737 21.0737 20.1731 21.0737 19.0733V16.7587C21.0737 16.2079 21.3923 15.4402 21.7805 15.052L23.4174 13.4154C24.1944 12.6366 24.1944 11.3633 23.4173 10.5857ZM10.4127 16.5003L5.99989 12.087L7.41413 10.673L10.413 13.6719L16.5862 7.50016L18.0001 8.91411L10.4127 16.5003Z" fill="#093C70"/>
</svg>
