<svg width="603" height="649" viewBox="0 0 603 649" fill="none" xmlns="http://www.w3.org/2000/svg">
<path d="M0 0H254C394.28 0 508 113.72 508 254C508 394.28 394.28 508 254 508H84.2455C37.718 508 0 470.282 0 423.755V0Z" fill="#E3E3E3"/>
<path d="M230 276H416.5C519.501 276 603 359.499 603 462.5C603 565.501 519.501 649 416.5 649H291.857C257.695 649 230 621.306 230 587.143V276Z" fill="#C9C9C9"/>
<rect width="193" height="184" transform="translate(26 434)" fill="#9AACC2"/>
<path d="M83.904 553.536C75.3707 553.536 68.2027 552.299 62.4 549.824C56.6827 547.264 52.3307 543.765 49.344 539.328C46.4427 534.805 44.992 529.557 44.992 523.584H67.52C67.52 525.803 68.032 527.851 69.056 529.728C70.08 531.605 71.616 533.099 73.664 534.208C75.712 535.317 78.2293 535.872 81.216 535.872C84.2027 535.872 86.6773 535.317 88.64 534.208C90.688 533.013 92.224 531.435 93.248 529.472C94.272 527.509 94.784 525.291 94.784 522.816C94.784 520.256 94.272 517.995 93.248 516.032C92.224 514.069 90.688 512.533 88.64 511.424C86.6773 510.229 84.2453 509.632 81.344 509.632C78.528 509.632 76.3093 510.059 74.688 510.912C73.0667 511.765 71.8293 512.704 70.976 513.728C70.208 514.667 69.568 515.435 69.056 516.032L48.832 513.216L52.544 463.936H113.472V485.696H71.616L70.592 499.008C70.592 499.008 71.3173 498.539 72.768 497.6C74.304 496.661 76.48 495.723 79.296 494.784C82.112 493.76 85.4827 493.248 89.408 493.248C95.6373 493.248 101.013 494.443 105.536 496.832C110.144 499.221 113.685 502.677 116.16 507.2C118.72 511.637 120 516.971 120 523.2C120 528.747 118.507 533.824 115.52 538.432C112.619 543.04 108.48 546.709 103.104 549.44C97.728 552.171 91.328 553.536 83.904 553.536ZM159.167 553.536C151.914 553.536 145.855 552.469 140.991 550.336C136.127 548.117 132.287 545.003 129.471 540.992C126.655 536.981 124.65 532.203 123.455 526.656C122.26 521.024 121.663 514.795 121.663 507.968C121.663 501.141 122.26 494.955 123.455 489.408C124.65 483.776 126.655 478.955 129.471 474.944C132.287 470.933 136.127 467.861 140.991 465.728C145.855 463.509 151.914 462.4 159.167 462.4C166.506 462.4 172.564 463.509 177.343 465.728C182.207 467.861 186.004 470.933 188.735 474.944C191.551 478.955 193.556 483.776 194.751 489.408C195.946 494.955 196.543 501.141 196.543 507.968C196.543 514.795 195.946 521.024 194.751 526.656C193.556 532.203 191.551 536.981 188.735 540.992C186.004 545.003 182.207 548.117 177.343 550.336C172.564 552.469 166.506 553.536 159.167 553.536ZM159.167 536.256C162.154 536.256 164.543 535.488 166.335 533.952C168.127 532.416 169.407 530.027 170.175 526.784C170.943 523.541 171.327 519.36 171.327 514.24V501.568C171.327 496.363 170.943 492.181 170.175 489.024C169.407 485.781 168.127 483.435 166.335 481.984C164.543 480.448 162.154 479.68 159.167 479.68C156.18 479.68 153.791 480.448 151.999 481.984C150.207 483.435 148.884 485.781 148.031 489.024C147.263 492.181 146.879 496.363 146.879 501.568V514.24C146.879 519.36 147.263 523.541 148.031 526.784C148.884 530.027 150.207 532.416 151.999 533.952C153.791 535.488 156.18 536.256 159.167 536.256Z" fill="white"/>
<path d="M51.08 596V585.12L40.32 568.52H48.6L54.76 578.8H54.96L61.08 568.52H68.92L58.28 585.12V596H51.08ZM72.3769 596V568.52H95.0569V574.12H79.5369V579.28H93.0969V584.76H79.5369V590.4H95.3369V596H72.3769ZM97.5856 596L107.906 568.52H116.506L126.826 596H119.186L117.546 591.24H106.586L104.946 596H97.5856ZM108.306 585.88H115.786L113.826 580.08C113.719 579.787 113.586 579.427 113.426 579C113.292 578.547 113.146 578.08 112.986 577.6C112.852 577.093 112.719 576.587 112.586 576.08C112.452 575.573 112.319 575.133 112.186 574.76H111.906C111.799 575.267 111.639 575.84 111.426 576.48C111.239 577.12 111.039 577.76 110.826 578.4C110.639 579.04 110.466 579.6 110.306 580.08L108.306 585.88ZM130.109 596V568.52H146.069C148.096 568.52 149.789 568.907 151.149 569.68C152.509 570.427 153.523 571.467 154.189 572.8C154.883 574.107 155.229 575.573 155.229 577.2C155.229 578.96 154.816 580.533 153.989 581.92C153.189 583.28 152.056 584.347 150.589 585.12L156.109 596H148.109L143.549 586.32H137.269V596H130.109ZM137.269 581H144.669C145.656 581 146.443 580.68 147.029 580.04C147.643 579.373 147.949 578.493 147.949 577.4C147.949 576.68 147.816 576.067 147.549 575.56C147.283 575.053 146.909 574.667 146.429 574.4C145.949 574.107 145.363 573.96 144.669 573.96H137.269V581ZM171.509 596.48C169.776 596.48 168.149 596.32 166.629 596C165.109 595.707 163.763 595.213 162.589 594.52C161.443 593.827 160.536 592.92 159.869 591.8C159.203 590.653 158.869 589.253 158.869 587.6C158.869 587.493 158.869 587.373 158.869 587.24C158.869 587.107 158.883 587 158.909 586.92H165.829C165.829 587 165.816 587.107 165.789 587.24C165.789 587.347 165.789 587.44 165.789 587.52C165.789 588.373 166.003 589.067 166.429 589.6C166.883 590.107 167.509 590.48 168.309 590.72C169.109 590.933 170.043 591.04 171.109 591.04C171.696 591.04 172.243 591.013 172.749 590.96C173.256 590.907 173.709 590.813 174.109 590.68C174.509 590.547 174.856 590.387 175.149 590.2C175.469 589.987 175.696 589.747 175.829 589.48C175.989 589.187 176.069 588.853 176.069 588.48C176.069 587.867 175.829 587.36 175.349 586.96C174.896 586.56 174.269 586.227 173.469 585.96C172.696 585.693 171.816 585.44 170.829 585.2C169.843 584.96 168.816 584.707 167.749 584.44C166.683 584.173 165.656 583.84 164.669 583.44C163.683 583.04 162.789 582.533 161.989 581.92C161.216 581.307 160.589 580.547 160.109 579.64C159.656 578.707 159.429 577.587 159.429 576.28C159.429 574.84 159.736 573.6 160.349 572.56C160.963 571.493 161.803 570.627 162.869 569.96C163.963 569.293 165.216 568.813 166.629 568.52C168.043 568.2 169.549 568.04 171.149 568.04C172.723 568.04 174.189 568.2 175.549 568.52C176.936 568.84 178.163 569.347 179.229 570.04C180.296 570.707 181.123 571.56 181.709 572.6C182.323 573.613 182.643 574.84 182.669 576.28V576.76H175.789V576.48C175.789 575.867 175.616 575.333 175.269 574.88C174.949 574.4 174.456 574.027 173.789 573.76C173.123 573.467 172.296 573.32 171.309 573.32C170.323 573.32 169.483 573.413 168.789 573.6C168.123 573.787 167.603 574.053 167.229 574.4C166.883 574.747 166.709 575.16 166.709 575.64C166.709 576.227 166.936 576.707 167.389 577.08C167.869 577.453 168.509 577.773 169.309 578.04C170.109 578.307 171.003 578.56 171.989 578.8C172.976 579.013 173.989 579.253 175.029 579.52C176.096 579.76 177.123 580.08 178.109 580.48C179.096 580.853 179.989 581.347 180.789 581.96C181.589 582.547 182.216 583.28 182.669 584.16C183.149 585.04 183.389 586.107 183.389 587.36C183.389 589.547 182.869 591.307 181.829 592.64C180.816 593.973 179.403 594.947 177.589 595.56C175.803 596.173 173.776 596.48 171.509 596.48Z" fill="white"/>
</svg>
