<svg width="38" height="38" viewBox="0 0 38 38" fill="none" xmlns="http://www.w3.org/2000/svg">
<path d="M9.28672 33.8564H24.7147V34.9992H9.28672C8.52899 34.9992 7.80229 34.6982 7.26649 34.1624C6.7307 33.6266 6.42969 32.8999 6.42969 32.1422V6.42893C6.42969 5.67119 6.7307 4.9445 7.26649 4.4087C7.80229 3.8729 8.52899 3.57189 9.28672 3.57189H12.7152V4.71471H9.28672C8.83208 4.71471 8.39606 4.89531 8.07458 5.21679C7.7531 5.53827 7.5725 5.97429 7.5725 6.42893V32.1422C7.5725 32.5968 7.7531 33.0329 8.07458 33.3543C8.39606 33.6758 8.83208 33.8564 9.28672 33.8564ZM29.2859 6.42893V12.143H30.4287V6.42893C30.4287 5.67119 30.1277 4.9445 29.5919 4.4087C29.0561 3.8729 28.3295 3.57189 27.5717 3.57189H24.1433V4.71471H27.5717C28.0264 4.71471 28.4624 4.89531 28.7839 5.21679C29.1053 5.53827 29.2859 5.97429 29.2859 6.42893ZM8.71531 6.42893V32.1422C8.71531 32.2938 8.77551 32.4391 8.88267 32.5463C8.98983 32.6534 9.13517 32.7136 9.28672 32.7136H24.1433V31.5708H9.85812V7.00033H12.7152V5.85752H9.28672C9.13517 5.85752 8.98983 5.91772 8.88267 6.02488C8.77551 6.13204 8.71531 6.27738 8.71531 6.42893ZM28.1431 12.143V6.42893C28.1431 6.27738 28.0829 6.13204 27.9758 6.02488C27.8686 5.91772 27.7233 5.85752 27.5717 5.85752H24.1433V7.00033H27.0003V12.143H28.1431ZM13.2866 7.00033V3.57189C13.2866 3.42035 13.3468 3.27501 13.4539 3.16785C13.5611 3.06069 13.7064 3.00049 13.858 3.00049H23.0005C23.152 3.00049 23.2974 3.06069 23.4045 3.16785C23.5117 3.27501 23.5719 3.42035 23.5719 3.57189V7.00033C23.5719 7.15188 23.5117 7.29722 23.4045 7.40438C23.2974 7.51154 23.152 7.57174 23.0005 7.57174H13.858C13.7064 7.57174 13.5611 7.51154 13.4539 7.40438C13.3468 7.29722 13.2866 7.15188 13.2866 7.00033ZM14.4294 6.42893H22.4291V4.1433H14.4294V6.42893ZM17.2864 5.85752H19.572V4.71471H17.2864V5.85752ZM11.5723 9.85736H25.2861V8.71455H11.5723V9.85736ZM25.2861 11.0002H11.5723V12.143H25.2861V11.0002ZM25.2861 13.2858H11.5723V14.4286H25.2861V13.2858ZM32.143 31.8051C32.1436 32.4716 31.9498 33.1239 31.5855 33.6821C31.2212 34.2402 30.702 34.6801 30.0916 34.9478C30.018 34.9813 29.9382 34.9989 29.8573 34.9992C29.7058 34.9992 29.5605 34.939 29.4533 34.8319C29.3461 34.7247 29.2859 34.5794 29.2859 34.4278V33.5193C29.2859 33.3678 29.2257 33.2224 29.1186 33.1152C29.0114 33.0081 28.8661 32.9479 28.7145 32.9479C28.563 32.9479 28.4176 33.0081 28.3105 33.1152C28.2033 33.2224 28.1431 33.3678 28.1431 33.5193V34.4278C28.1425 34.5224 28.1184 34.6153 28.0731 34.6983C28.0277 34.7813 27.9624 34.8517 27.8831 34.9032C27.8039 34.9547 27.713 34.9858 27.6188 34.9936C27.5245 35.0014 27.4298 34.9856 27.3432 34.9478C26.7625 34.6937 26.2636 34.2836 25.9019 33.7631C25.5402 33.2425 25.33 32.6319 25.2944 31.999C25.2589 31.3661 25.3995 30.7358 25.7007 30.1781C26.0018 29.6203 26.4517 29.157 27.0003 28.8395V19.697C26.5682 19.4482 26.1956 19.1082 25.9084 18.7006C25.6212 18.293 25.4264 17.8277 25.3375 17.3371C25.1992 16.5435 25.3195 15.7264 25.6806 15.0063C26.0416 14.2862 26.6245 13.7011 27.3432 13.3372C27.4298 13.2994 27.5245 13.2837 27.6188 13.2915C27.713 13.2992 27.8039 13.3303 27.8831 13.3818C27.9624 13.4334 28.0277 13.5038 28.0731 13.5867C28.1184 13.6697 28.1425 13.7626 28.1431 13.8572V15C28.1431 15.1516 28.2033 15.2969 28.3105 15.4041C28.4176 15.5112 28.563 15.5714 28.7145 15.5714C28.8661 15.5714 29.0114 15.5112 29.1186 15.4041C29.2257 15.2969 29.2859 15.1516 29.2859 15V13.8572C29.2855 13.7621 29.3088 13.6684 29.3537 13.5846C29.3986 13.5008 29.4637 13.4295 29.5431 13.3772C29.6264 13.3209 29.7231 13.2875 29.8234 13.2805C29.9237 13.2734 30.0241 13.293 30.1145 13.3372C30.7302 13.6595 31.2452 14.1451 31.603 14.7408C31.9609 15.3365 32.1477 16.0193 32.143 16.7142C32.1424 17.3155 31.9836 17.9059 31.6828 18.4265C31.3819 18.947 30.9494 19.3792 30.4287 19.6798V28.8223C30.9519 29.1244 31.386 29.5593 31.6871 30.0831C31.9881 30.6069 32.1454 31.201 32.143 31.8051ZM31.0002 31.8051C30.9995 31.3609 30.8694 30.9266 30.6259 30.5552C30.3823 30.1838 30.0358 29.8914 29.6288 29.7137C29.5266 29.6691 29.4396 29.5956 29.3787 29.5022C29.3178 29.4088 29.2855 29.2996 29.2859 29.188V19.3313C29.2855 19.2198 29.3178 19.1106 29.3787 19.0171C29.4396 18.9237 29.5266 18.8502 29.6288 18.8056C30.0358 18.6279 30.3823 18.3355 30.6259 17.9641C30.8694 17.5927 30.9995 17.1584 31.0002 16.7142C30.9892 16.1137 30.7893 15.5319 30.4287 15.0514C30.4287 15.5061 30.2481 15.9421 29.9267 16.2636C29.6052 16.5851 29.1692 16.7657 28.7145 16.7657C28.2599 16.7657 27.8239 16.5851 27.5024 16.2636C27.1809 15.9421 27.0003 15.5061 27.0003 15.0514C26.7741 15.3468 26.6099 15.6847 26.5176 16.0451C26.4253 16.4055 26.4068 16.7808 26.4632 17.1485C26.5314 17.5166 26.6891 17.8623 26.9222 18.1553C27.1553 18.4482 27.4569 18.6793 27.8003 18.8284C27.9025 18.873 27.9894 18.9466 28.0503 19.04C28.1113 19.1334 28.1435 19.2426 28.1431 19.3541V29.188C28.1435 29.2996 28.1113 29.4088 28.0503 29.5022C27.9894 29.5956 27.9025 29.6691 27.8003 29.7137C27.4694 29.8576 27.1773 30.0777 26.9478 30.3561C26.7184 30.6345 26.558 30.9633 26.48 31.3155C26.402 31.6678 26.4085 32.0335 26.4989 32.3827C26.5893 32.732 26.7611 33.0549 27.0003 33.325C27.0003 32.8704 27.1809 32.4344 27.5024 32.1129C27.8239 31.7914 28.2599 31.6108 28.7145 31.6108C29.1692 31.6108 29.6052 31.7914 29.9267 32.1129C30.2481 32.4344 30.4287 32.8704 30.4287 33.325C30.7988 32.9054 31.0021 32.3646 31.0002 31.8051ZM17.2864 20.7141C17.2864 20.8656 17.2262 21.011 17.119 21.1181C17.0119 21.2253 16.8665 21.2855 16.715 21.2855H12.1438C11.9922 21.2855 11.8469 21.2253 11.7397 21.1181C11.6325 21.011 11.5723 20.8656 11.5723 20.7141V16.1428C11.5723 15.9913 11.6325 15.8459 11.7397 15.7388C11.8469 15.6316 11.9922 15.5714 12.1438 15.5714H16.715C16.8665 15.5714 17.0119 15.6316 17.119 15.7388C17.2262 15.8459 17.2864 15.9913 17.2864 16.1428V20.7141ZM12.7152 16.7142V19.337L15.3379 16.7142H12.7152ZM16.1436 20.1427V17.5199L13.5208 20.1427H16.1436ZM24.1433 15.5714H18.4292V16.7142H24.1433V15.5714ZM18.4292 18.9999H24.1433V17.8571H18.4292V18.9999ZM25.8575 20.1427H18.4292V21.2855H25.8575V20.1427ZM17.2864 22.9997V27.571C17.2864 27.7225 17.2262 27.8678 17.119 27.975C17.0119 28.0822 16.8665 28.1424 16.715 28.1424H12.1438C11.9922 28.1424 11.8469 28.0822 11.7397 27.975C11.6325 27.8678 11.5723 27.7225 11.5723 27.571V22.9997C11.5723 22.8482 11.6325 22.7028 11.7397 22.5957C11.8469 22.4885 11.9922 22.4283 12.1438 22.4283H16.715C16.8665 22.4283 17.0119 22.4885 17.119 22.5957C17.2262 22.7028 17.2864 22.8482 17.2864 22.9997ZM12.7152 23.5711V26.1939L15.3379 23.5711H12.7152ZM16.1436 26.9995V24.3768L13.5208 26.9995H16.1436ZM24.1433 22.4283H18.4292V23.5711H24.1433V22.4283ZM18.4292 25.8567H24.1433V24.7139H18.4292V25.8567ZM25.8575 26.9995H18.4292V28.1424H25.8575V26.9995Z" fill="white"/>
</svg>
