<svg width="38" height="38" viewBox="0 0 38 38" fill="none" xmlns="http://www.w3.org/2000/svg">
<path d="M20.5301 21.5027C20.107 21.5027 19.6832 21.342 19.3612 21.0207L18.8029 20.463C18.6997 20.3612 18.5371 20.3337 18.3895 20.3951C18.2243 20.463 18.127 20.5982 18.127 20.7458C18.127 21.1004 17.8396 21.3877 17.4844 21.3877C17.1291 21.3877 16.8418 21.1011 16.8418 20.7458C16.8418 20.0751 17.2526 19.4737 17.888 19.2131C18.5305 18.948 19.2404 19.0851 19.7112 19.5547L20.2689 20.1117C20.4126 20.2541 20.6464 20.2547 20.7901 20.1117L22.0922 18.8109C22.2359 18.6672 22.2359 18.4334 22.0922 18.2904L21.5339 17.7334C21.0624 17.2625 20.9265 16.552 21.1877 15.9231C21.4529 15.2773 22.0556 14.8672 22.727 14.8672H23.5119C23.715 14.8672 23.8809 14.702 23.8809 14.4989C23.8809 14.1443 24.1682 13.8569 24.5235 13.8569C24.8787 13.8569 25.166 14.1443 25.166 14.4989C25.166 15.4092 24.4235 16.1504 23.5126 16.1504H22.7276C22.5794 16.1504 22.4435 16.2484 22.3815 16.3992C22.3142 16.5612 22.3417 16.7231 22.4435 16.8256L23.0019 17.3827C23.6464 18.0272 23.6464 19.0747 23.0019 19.7186L21.6997 21.0188C21.3771 21.3427 20.954 21.5027 20.5301 21.5027Z" fill="white"/>
<path d="M9.86028 21.2084C9.69571 21.2084 9.5318 21.1457 9.40577 21.0203L8.10361 19.7194C7.79146 19.4079 7.61906 18.9933 7.61906 18.5518C7.61906 18.1104 7.79081 17.6963 8.10361 17.3842L8.66131 16.8272C8.76383 16.7246 8.78995 16.5633 8.72922 16.4151C8.66131 16.2499 8.52547 16.1519 8.37789 16.1519H7.59294C6.6813 16.1526 5.93945 15.4114 5.93945 14.501V12.6621C5.93945 11.7518 6.6813 11.0106 7.59294 11.0106H8.37789C8.52613 11.0106 8.66196 10.9133 8.72334 10.7624C8.79061 10.5998 8.76383 10.4379 8.66131 10.336L8.10361 9.77894C7.79146 9.46744 7.61906 9.05276 7.61906 8.61131C7.61906 8.16986 7.79081 7.75583 8.10361 7.44368L9.40577 6.14283C10.051 5.49959 11.0997 5.49959 11.7443 6.14283L12.3026 6.70053C12.4058 6.8024 12.5678 6.82983 12.7154 6.76844C12.8806 6.70053 12.9785 6.56535 12.9785 6.41711V5.63151C12.9779 4.72118 13.7197 3.97998 14.6314 3.97998H16.4729C17.3846 3.97998 18.1264 4.72118 18.1264 5.63151V6.4158C18.1264 6.56339 18.2237 6.69922 18.3752 6.76126C18.5391 6.82918 18.6998 6.80175 18.8023 6.69922L19.36 6.14153C20.0052 5.49764 21.0533 5.49698 21.6985 6.14153C21.9493 6.39229 21.9493 6.79848 21.6985 7.0486C21.4477 7.29936 21.0409 7.29936 20.7901 7.0486C20.6452 6.90493 20.4127 6.90558 20.269 7.0486L19.7113 7.60629C19.2411 8.07713 18.53 8.21296 17.8991 7.95305C17.252 7.68792 16.8419 7.08647 16.8419 6.4158V5.63151C16.8419 5.42841 16.6767 5.2632 16.4736 5.2632H14.632C14.4289 5.2632 14.2637 5.42841 14.2637 5.63151V6.4158C14.2637 7.08647 13.8536 7.68792 13.2182 7.94848C12.5763 8.21296 11.8658 8.07713 11.3949 7.60694L10.8359 7.04925C10.6922 6.90558 10.4585 6.90558 10.3148 7.04925L9.01264 8.34944C8.94276 8.41932 8.90489 8.5114 8.90489 8.61C8.90489 8.70861 8.94342 8.80069 9.01264 8.86991L9.57033 9.4276C10.0412 9.89779 10.1777 10.6083 9.91709 11.2372C9.65131 11.8837 9.04921 12.2931 8.37789 12.2931H7.59294C7.38985 12.2931 7.22463 12.4583 7.22463 12.6614V14.5004C7.22463 14.7035 7.3905 14.8687 7.59359 14.8687H8.37854C9.04986 14.8687 9.65261 15.2788 9.91318 15.9136C10.1777 16.5542 10.0418 17.264 9.57098 17.7349L9.01329 18.2919C8.94342 18.3618 8.90554 18.4539 8.90554 18.5525C8.90554 18.6511 8.94407 18.7432 9.01329 18.8124L10.3154 20.1132C10.5662 20.364 10.5662 20.7702 10.3154 21.0203C10.1894 21.1463 10.0248 21.2084 9.86028 21.2084Z" fill="white"/>
<path d="M11.8035 14.8068C11.492 14.8068 11.2191 14.5802 11.1694 14.2635C11.1348 14.0388 11.1172 13.8096 11.1172 13.5817C11.1172 11.14 13.1063 9.15283 15.5513 9.15283C15.9059 9.15283 16.1939 9.44017 16.1939 9.79477C16.1939 10.1494 15.9066 10.4367 15.5513 10.4367C13.8149 10.4367 12.4024 11.8473 12.4024 13.5824C12.4024 13.745 12.4148 13.9082 12.4396 14.0682C12.4938 14.4183 12.2535 14.7461 11.9028 14.8003C11.8695 14.8042 11.8368 14.8068 11.8035 14.8068Z" fill="white"/>
<path d="M16.9216 17.7565C16.6643 17.7565 16.4207 17.6004 16.3227 17.3457C16.1947 17.0153 16.3593 16.6437 16.6904 16.5157C17.713 16.1206 18.466 15.2057 18.6554 14.1295C18.7167 13.7808 19.0478 13.547 19.3992 13.6084C19.7485 13.6698 19.9823 14.0022 19.9209 14.3516C19.6545 15.8679 18.594 17.1557 17.154 17.7127C17.077 17.7421 16.9986 17.7565 16.9216 17.7565Z" fill="white"/>
<path d="M22.1228 28.7058C19.4676 28.7058 16.971 27.6727 15.0935 25.7972C13.216 23.9217 12.1816 21.4284 12.1816 18.7758C12.1816 16.1231 13.216 13.6298 15.0935 11.7543C16.971 9.87881 19.4682 8.8457 22.1228 8.8457C24.7787 8.8457 27.2753 9.87881 29.1527 11.7543C33.0285 15.6255 33.0285 21.9254 29.1527 25.7966C27.2753 27.6721 24.7787 28.7058 22.1228 28.7058ZM22.1228 10.1296C19.8111 10.1296 17.6364 11.0288 16.0019 12.662C14.3674 14.2953 13.4662 16.4666 13.4662 18.7758C13.4662 21.0849 14.3667 23.2562 16.0019 24.8895C17.6371 26.5227 19.8111 27.4226 22.1228 27.4226C24.4352 27.4226 26.6092 26.5227 28.2444 24.8895C29.8796 23.2562 30.7794 21.0849 30.7794 18.7758C30.7794 16.4666 29.8789 14.2953 28.2444 12.662C26.6098 11.0288 24.4359 10.1296 22.1228 10.1296Z" fill="white"/>
<path d="M22.1241 26.7754C19.9847 26.7754 17.9734 25.9428 16.4609 24.4317C14.9485 22.9206 14.1152 20.9125 14.1152 18.7751C14.1152 16.6383 14.9485 14.6296 16.4609 13.1185C17.9734 11.6074 19.9847 10.7754 22.1241 10.7754C24.2634 10.7754 26.2748 11.6074 27.7878 13.1185C29.3003 14.6296 30.1342 16.6383 30.1342 18.7751C30.1342 20.9125 29.3003 22.9206 27.7878 24.4317C26.2754 25.9428 24.2641 26.7754 22.1241 26.7754ZM22.1241 12.0599C20.3276 12.0599 18.6395 12.758 17.3693 14.0269C16.0992 15.2957 15.3998 16.9818 15.3998 18.7757C15.3998 20.5696 16.0992 22.2564 17.3693 23.5246C18.6395 24.7935 20.3276 25.4922 22.1241 25.4922C23.9206 25.4922 25.6093 24.7935 26.8788 23.5246C28.149 22.2564 28.849 20.5696 28.849 18.7757C28.849 16.9818 28.1496 15.2957 26.8788 14.0269C25.6093 12.758 23.9206 12.0599 22.1241 12.0599Z" fill="white"/>
<path d="M14.1484 24.2046L15.0574 25.1123L13.8242 26.3472L12.9152 25.4395L14.1484 24.2046Z" fill="white"/>
<path d="M15.791 25.8472L16.7 26.7549L15.4673 27.9893L14.5583 27.0816L15.791 25.8472Z" fill="white"/>
<path d="M9.32654 34.0196C8.66828 34.0196 8.04855 33.7636 7.58359 33.2987C7.11797 32.8337 6.86133 32.2159 6.86133 31.5577C6.86133 30.8994 7.11797 30.2816 7.58359 29.8167L12.9039 24.5029L16.3898 27.9843L11.0695 33.298C10.6039 33.7636 9.9848 34.0196 9.32654 34.0196ZM12.9032 26.3177L8.49196 30.7244C8.26862 30.9471 8.1465 31.2436 8.1465 31.5577C8.1465 31.8718 8.26927 32.1689 8.49196 32.391C8.93798 32.8376 9.71509 32.8376 10.1611 32.391L14.5724 27.9843L12.9032 26.3177Z" fill="white"/>
</svg>
