<svg width="38" height="38" viewBox="0 0 38 38" fill="none" xmlns="http://www.w3.org/2000/svg">
<path d="M7.92957 35.7452C7.92957 36.3366 7.44959 36.8166 6.85818 36.8166H2.25693C1.66553 36.8166 1.18555 36.3366 1.18555 35.7452V31.1439C1.18555 30.5525 1.66553 30.0725 2.25693 30.0725C2.84834 30.0725 3.32832 30.5525 3.32832 31.1439V34.6738H6.85818C7.44959 34.6738 7.92957 35.1538 7.92957 35.7452ZM35.7442 30.0725C35.1528 30.0725 34.6728 30.5525 34.6728 31.1439V34.6738H31.1429C30.5515 34.6738 30.0716 35.1538 30.0716 35.7452C30.0716 36.3366 30.5515 36.8166 31.1429 36.8166H35.7442C36.3356 36.8166 36.8156 36.3366 36.8156 35.7452V31.1439C36.8156 30.5525 36.3363 30.0725 35.7442 30.0725ZM2.25693 7.93055C2.84834 7.93055 3.32832 7.45056 3.32832 6.85916V3.3293H6.85818C7.44959 3.3293 7.92957 2.84932 7.92957 2.25791C7.92957 1.6665 7.44959 1.18652 6.85818 1.18652H2.25693C1.66553 1.18652 1.18555 1.6665 1.18555 2.25791V6.85916C1.18555 7.45056 1.66481 7.93055 2.25693 7.93055ZM35.7442 1.18652H31.1429C30.5515 1.18652 30.0716 1.6665 30.0716 2.25791C30.0716 2.84932 30.5515 3.3293 31.1429 3.3293H34.6728V6.85916C34.6728 7.45056 35.1528 7.93055 35.7442 7.93055C36.3356 7.93055 36.8156 7.45056 36.8156 6.85916V2.25791C36.8156 1.66579 36.3363 1.18652 35.7442 1.18652ZM24.8675 22.54V25.0406C24.8675 26.1798 23.9404 27.1062 22.8018 27.1062H7.74029C6.60105 27.1062 5.67466 26.1791 5.67466 25.0406V13.7596C5.67466 12.6204 6.60176 11.694 7.74029 11.694H22.8011C23.9404 11.694 24.8668 12.6211 24.8668 13.7596V16.2602L30.8501 13.8246C31.1801 13.6903 31.5558 13.7289 31.8522 13.9282C32.1479 14.1274 32.3258 14.4603 32.3258 14.8174V23.9842C32.3258 24.3406 32.1479 24.6742 31.8522 24.8735C31.6729 24.9942 31.4644 25.0556 31.2544 25.0556C31.118 25.0556 30.9808 25.0292 30.8508 24.9763L24.8675 22.54ZM22.7247 13.8367H7.81743V24.9635H22.7247V13.8367ZM24.8675 18.5737V20.2265L30.1837 22.3907V16.4095L24.8675 18.5737Z" fill="white"/>
</svg>
