<svg width="38" height="38" viewBox="0 0 38 38" fill="none" xmlns="http://www.w3.org/2000/svg">
<path d="M33.2848 5.28732H30.4277V4.14451C30.4277 3.53833 30.1869 2.95697 29.7583 2.52833C29.3297 2.09969 28.7483 1.85889 28.1421 1.85889C27.5359 1.85889 26.9546 2.09969 26.5259 2.52833C26.0973 2.95697 25.8565 3.53833 25.8565 4.14451V5.28732H21.2852V4.14451C21.2852 3.53833 21.0444 2.95697 20.6158 2.52833C20.1872 2.09969 19.6058 1.85889 18.9996 1.85889C18.3934 1.85889 17.8121 2.09969 17.3834 2.52833C16.9548 2.95697 16.714 3.53833 16.714 4.14451V5.28732H12.1427V4.14451C12.1427 3.53833 11.9019 2.95697 11.4733 2.52833C11.0447 2.09969 10.4633 1.85889 9.85711 1.85889C9.25092 1.85889 8.66957 2.09969 8.24093 2.52833C7.81229 2.95697 7.57148 3.53833 7.57148 4.14451V5.28732H4.71445C3.95672 5.28732 3.23002 5.58833 2.69423 6.12413C2.15843 6.65993 1.85742 7.38662 1.85742 8.14436V31.0006C1.85742 31.7583 2.15843 32.485 2.69423 33.0208C3.23002 33.5566 3.95672 33.8576 4.71445 33.8576H20.7138C20.8654 33.8576 21.0107 33.7974 21.1179 33.6903C21.225 33.5831 21.2852 33.4378 21.2852 33.2862C21.2852 33.1347 21.225 32.9893 21.1179 32.8822C21.0107 32.775 20.8654 32.7148 20.7138 32.7148H4.71445C4.26023 32.7135 3.825 32.5324 3.50382 32.2112C3.18263 31.8901 3.00159 31.4548 3.00023 31.0006V13.287H34.999V23.0009C34.999 23.1525 35.0592 23.2978 35.1663 23.405C35.2735 23.5121 35.4188 23.5723 35.5704 23.5723C35.7219 23.5723 35.8673 23.5121 35.9744 23.405C36.0816 23.2978 36.1418 23.1525 36.1418 23.0009V8.14436C36.1418 7.38662 35.8408 6.65993 35.305 6.12413C34.7692 5.58833 34.0425 5.28732 33.2848 5.28732ZM26.9993 4.14451C26.9993 3.84142 27.1197 3.55074 27.334 3.33642C27.5483 3.1221 27.839 3.0017 28.1421 3.0017C28.4452 3.0017 28.7359 3.1221 28.9502 3.33642C29.1645 3.55074 29.2849 3.84142 29.2849 4.14451V7.57295C29.2849 7.87604 29.1645 8.16672 28.9502 8.38104C28.7359 8.59536 28.4452 8.71576 28.1421 8.71576C27.839 8.71576 27.5483 8.59536 27.334 8.38104C27.1197 8.16672 26.9993 7.87604 26.9993 7.57295V4.14451ZM17.8568 4.14451C17.8568 3.84142 17.9772 3.55074 18.1915 3.33642C18.4058 3.1221 18.6965 3.0017 18.9996 3.0017C19.3027 3.0017 19.5934 3.1221 19.8077 3.33642C20.022 3.55074 20.1424 3.84142 20.1424 4.14451V7.57295C20.1424 7.87604 20.022 8.16672 19.8077 8.38104C19.5934 8.59536 19.3027 8.71576 18.9996 8.71576C18.6965 8.71576 18.4058 8.59536 18.1915 8.38104C17.9772 8.16672 17.8568 7.87604 17.8568 7.57295V4.14451ZM8.7143 4.14451C8.7143 3.84142 8.8347 3.55074 9.04902 3.33642C9.26334 3.1221 9.55402 3.0017 9.85711 3.0017C10.1602 3.0017 10.4509 3.1221 10.6652 3.33642C10.8795 3.55074 10.9999 3.84142 10.9999 4.14451V7.57295C10.9999 7.87604 10.8795 8.16672 10.6652 8.38104C10.4509 8.59536 10.1602 8.71576 9.85711 8.71576C9.55402 8.71576 9.26334 8.59536 9.04902 8.38104C8.8347 8.16672 8.7143 7.87604 8.7143 7.57295V4.14451ZM34.999 12.1442H3.00023V8.14436C3.00159 7.69013 3.18263 7.2549 3.50382 6.93372C3.825 6.61253 4.26023 6.43149 4.71445 6.43014H7.57148V7.57295C7.57148 8.17913 7.81229 8.76049 8.24093 9.18913C8.66957 9.61777 9.25092 9.85857 9.85711 9.85857C10.4633 9.85857 11.0447 9.61777 11.4733 9.18913C11.9019 8.76049 12.1427 8.17913 12.1427 7.57295V6.43014H16.714V7.57295C16.714 8.17913 16.9548 8.76049 17.3834 9.18913C17.8121 9.61777 18.3934 9.85857 18.9996 9.85857C19.6058 9.85857 20.1872 9.61777 20.6158 9.18913C21.0444 8.76049 21.2852 8.17913 21.2852 7.57295V6.43014H25.8565V7.57295C25.8565 8.17913 26.0973 8.76049 26.5259 9.18913C26.9546 9.61777 27.5359 9.85857 28.1421 9.85857C28.7483 9.85857 29.3297 9.61777 29.7583 9.18913C30.1869 8.76049 30.4277 8.17913 30.4277 7.57295V6.43014H33.2848C33.739 6.43149 34.1742 6.61253 34.4954 6.93372C34.8166 7.2549 34.9976 7.69013 34.999 8.14436V12.1442Z" fill="white"/>
<path d="M17.8564 17.2869C17.8564 16.9838 17.736 16.6931 17.5217 16.4788C17.3074 16.2644 17.0167 16.144 16.7136 16.144H14.428C14.1249 16.144 13.8342 16.2644 13.6199 16.4788C13.4056 16.6931 13.2852 16.9838 13.2852 17.2869V19.0011C13.2852 19.3042 13.4056 19.5948 13.6199 19.8092C13.8342 20.0235 14.1249 20.1439 14.428 20.1439H16.7136C17.0167 20.1439 17.3074 20.0235 17.5217 19.8092C17.736 19.5948 17.8564 19.3042 17.8564 19.0011V17.2869ZM14.428 19.0011V17.2869H16.7136V19.0011H14.428Z" fill="white"/>
<path d="M10.999 17.2869C10.999 16.9838 10.8786 16.6931 10.6643 16.4788C10.4499 16.2644 10.1593 16.144 9.85617 16.144H7.57055C7.26745 16.144 6.97678 16.2644 6.76246 16.4788C6.54814 16.6931 6.42773 16.9838 6.42773 17.2869V19.0011C6.42773 19.3042 6.54814 19.5948 6.76246 19.8092C6.97678 20.0235 7.26745 20.1439 7.57055 20.1439H9.85617C10.1593 20.1439 10.4499 20.0235 10.6643 19.8092C10.8786 19.5948 10.999 19.3042 10.999 19.0011V17.2869ZM7.57055 19.0011V17.2869H9.85617V19.0011H7.57055Z" fill="white"/>
<path d="M30.4284 20.1439C30.7315 20.1439 31.0222 20.0235 31.2365 19.8092C31.4508 19.5948 31.5712 19.3042 31.5712 19.0011V17.2869C31.5712 16.9838 31.4508 16.6931 31.2365 16.4788C31.0222 16.2644 30.7315 16.144 30.4284 16.144H28.1428C27.8397 16.144 27.549 16.2644 27.3347 16.4788C27.1204 16.6931 27 16.9838 27 17.2869V19.0011C27 19.3042 27.1204 19.5948 27.3347 19.8092C27.549 20.0235 27.8397 20.1439 28.1428 20.1439H30.4284ZM28.1428 17.2869H30.4284V19.0011H28.1428V17.2869Z" fill="white"/>
<path d="M17.8564 22.4294C17.8564 22.1263 17.736 21.8357 17.5217 21.6213C17.3074 21.407 17.0167 21.2866 16.7136 21.2866H14.428C14.1249 21.2866 13.8342 21.407 13.6199 21.6213C13.4056 21.8357 13.2852 22.1263 13.2852 22.4294V24.1437C13.2852 24.4467 13.4056 24.7374 13.6199 24.9517C13.8342 25.1661 14.1249 25.2865 14.428 25.2865H16.7136C17.0167 25.2865 17.3074 25.1661 17.5217 24.9517C17.736 24.7374 17.8564 24.4467 17.8564 24.1437V22.4294ZM14.428 24.1437V22.4294H16.7136V24.1437H14.428Z" fill="white"/>
<path d="M10.999 22.4294C10.999 22.1263 10.8786 21.8357 10.6643 21.6213C10.4499 21.407 10.1593 21.2866 9.85617 21.2866H7.57055C7.26745 21.2866 6.97678 21.407 6.76246 21.6213C6.54814 21.8357 6.42773 22.1263 6.42773 22.4294V24.1437C6.42773 24.4467 6.54814 24.7374 6.76246 24.9517C6.97678 25.1661 7.26745 25.2865 7.57055 25.2865H9.85617C10.1593 25.2865 10.4499 25.1661 10.6643 24.9517C10.8786 24.7374 10.999 24.4467 10.999 24.1437V22.4294ZM7.57055 24.1437V22.4294H9.85617V24.1437H7.57055Z" fill="white"/>
<path d="M16.7136 26.4292H14.428C14.1249 26.4292 13.8342 26.5496 13.6199 26.7639C13.4056 26.9782 13.2852 27.2689 13.2852 27.572V29.2862C13.2852 29.5893 13.4056 29.88 13.6199 30.0943C13.8342 30.3086 14.1249 30.429 14.428 30.429H16.7136C17.0167 30.429 17.3074 30.3086 17.5217 30.0943C17.736 29.88 17.8564 29.5893 17.8564 29.2862V27.572C17.8564 27.2689 17.736 26.9782 17.5217 26.7639C17.3074 26.5496 17.0167 26.4292 16.7136 26.4292ZM14.428 29.2862V27.572H16.7136V29.2862H14.428Z" fill="white"/>
<path d="M21.2854 20.1439H23.571C23.8741 20.1439 24.1648 20.0235 24.3791 19.8092C24.5934 19.5948 24.7138 19.3042 24.7138 19.0011V17.2869C24.7138 16.9838 24.5934 16.6931 24.3791 16.4788C24.1648 16.2644 23.8741 16.144 23.571 16.144H21.2854C20.9823 16.144 20.6916 16.2644 20.4773 16.4788C20.263 16.6931 20.1426 16.9838 20.1426 17.2869V19.0011C20.1426 19.3042 20.263 19.5948 20.4773 19.8092C20.6916 20.0235 20.9823 20.1439 21.2854 20.1439ZM21.2854 17.2869H23.571V19.0011H21.2854V17.2869Z" fill="white"/>
<path d="M20.1426 24.1437C20.1426 24.4467 20.263 24.7374 20.4773 24.9517C20.6916 25.1661 20.9823 25.2865 21.2854 25.2865C21.4369 25.2865 21.5823 25.2263 21.6894 25.1191C21.7966 25.0119 21.8568 24.8666 21.8568 24.7151C21.8568 24.5635 21.7966 24.4182 21.6894 24.311C21.5823 24.2039 21.4369 24.1437 21.2854 24.1437V22.4294H23.571C23.7226 22.4294 23.8679 22.3692 23.9751 22.2621C24.0822 22.1549 24.1424 22.0096 24.1424 21.858C24.1424 21.7065 24.0822 21.5611 23.9751 21.454C23.8679 21.3468 23.7226 21.2866 23.571 21.2866H21.2854C20.9823 21.2866 20.6916 21.407 20.4773 21.6213C20.263 21.8357 20.1426 22.1263 20.1426 22.4294V24.1437Z" fill="white"/>
<path d="M9.85617 26.4292H7.57055C7.26745 26.4292 6.97678 26.5496 6.76246 26.7639C6.54814 26.9782 6.42773 27.2689 6.42773 27.572V29.2862C6.42773 29.5893 6.54814 29.88 6.76246 30.0943C6.97678 30.3086 7.26745 30.429 7.57055 30.429H9.85617C10.1593 30.429 10.4499 30.3086 10.6643 30.0943C10.8786 29.88 10.999 29.5893 10.999 29.2862V27.572C10.999 27.2689 10.8786 26.9782 10.6643 26.7639C10.4499 26.5496 10.1593 26.4292 9.85617 26.4292ZM7.57055 29.2862V27.572H9.85617V29.2862H7.57055Z" fill="white"/>
<path d="M28.7134 21.2866C27.2443 21.2866 25.8081 21.7223 24.5865 22.5385C23.3649 23.3547 22.4128 24.5149 21.8506 25.8722C21.2884 27.2296 21.1413 28.7231 21.4279 30.1641C21.7145 31.605 22.422 32.9286 23.4609 33.9675C24.4997 35.0064 25.8233 35.7138 27.2643 36.0005C28.7052 36.2871 30.1988 36.14 31.5561 35.5777C32.9135 35.0155 34.0736 34.0634 34.8898 32.8418C35.7061 31.6203 36.1417 30.1841 36.1417 28.7149C36.1395 26.7455 35.3561 24.8574 33.9635 23.4648C32.5709 22.0722 30.6828 21.2889 28.7134 21.2866ZM28.7134 35.0004C27.4703 35.0004 26.2551 34.6317 25.2214 33.9411C24.1878 33.2504 23.3822 32.2688 22.9064 31.1202C22.4307 29.9717 22.3062 28.7079 22.5487 27.4887C22.7913 26.2694 23.3899 25.1494 24.2689 24.2704C25.148 23.3914 26.2679 22.7927 27.4872 22.5502C28.7065 22.3077 29.9703 22.4322 31.1188 22.9079C32.2673 23.3836 33.249 24.1892 33.9396 25.2229C34.6303 26.2565 34.9989 27.4718 34.9989 28.7149C34.9969 30.3813 34.3341 31.9789 33.1558 33.1572C31.9774 34.3356 30.3798 34.9984 28.7134 35.0004Z" fill="white"/>
<path d="M32.0147 26.3196L27.5703 30.764L25.5504 28.7435C25.4426 28.6394 25.2983 28.5818 25.1485 28.5831C24.9987 28.5844 24.8553 28.6445 24.7494 28.7504C24.6435 28.8564 24.5834 28.9997 24.5821 29.1495C24.5808 29.2993 24.6383 29.4437 24.7424 29.5515L27.1663 31.9759C27.2735 32.0831 27.4188 32.1432 27.5703 32.1432C27.7218 32.1432 27.8672 32.0831 27.9743 31.9759L32.8227 27.1275C32.9268 27.0198 32.9844 26.8754 32.9831 26.7256C32.9818 26.5758 32.9217 26.4325 32.8157 26.3265C32.7098 26.2206 32.5665 26.1605 32.4166 26.1592C32.2668 26.1579 32.1225 26.2155 32.0147 26.3196Z" fill="white"/>
</svg>
