<svg width="48" height="48" viewBox="0 0 48 48" fill="none" xmlns="http://www.w3.org/2000/svg">
<g clip-path="url(#clip0_75_880)">
<path opacity="0.996" fill-rule="evenodd" clip-rule="evenodd" d="M-0.046875 31.5469C-0.046875 23.5469 -0.046875 15.5468 -0.046875 7.54688C0.436092 5.86085 1.52984 4.78272 3.23438 4.3125C12.3593 4.25 21.4844 4.25 30.6094 4.3125C32.1621 4.70889 33.209 5.66201 33.75 7.17188C33.886 9.01052 33.9329 10.8543 33.8906 12.7031C28.6405 12.6875 23.3905 12.7031 18.1406 12.75C14.8275 12.9704 12.6244 14.6423 11.5312 17.7656C11.3603 18.4104 11.2666 19.0667 11.25 19.7344C11.2031 22.0779 11.1875 24.4217 11.2031 26.7656C10.0152 26.75 8.82772 26.7656 7.64062 26.8125C5.89062 28.5625 4.14063 30.3125 2.39062 32.0625C1.70313 32.5 1.01562 32.5 0.328125 32.0625C0.215946 31.8736 0.0909453 31.7017 -0.046875 31.5469Z" fill="white"/>
<path opacity="0.996" fill-rule="evenodd" clip-rule="evenodd" d="M47.9536 18.7969C47.9536 26.7969 47.9536 34.7969 47.9536 42.7969C47.4528 43.6363 46.7341 43.8707 45.7974 43.5C43.925 41.7215 42.0813 39.9089 40.2661 38.0625C32.6099 38.0313 24.9537 38 17.2974 37.9688C15.5935 37.5148 14.5154 36.4367 14.063 34.7344C14.0474 32.0782 14.0318 29.4219 14.0161 26.7656C14.002 23.9801 14.0489 21.1988 14.1568 18.4219C14.6978 16.9121 15.7447 15.9589 17.2974 15.5625C26.4224 15.5 35.5474 15.5 44.6724 15.5625C46.3769 16.0328 47.4706 17.1109 47.9536 18.7969ZM22.4536 22.5469C28.1413 22.5312 33.8287 22.5469 39.5161 22.5938C40.3544 22.6662 40.7919 23.1194 40.8286 23.9531C40.7919 24.7869 40.3544 25.2401 39.5161 25.3125C33.8286 25.3751 28.1412 25.3751 22.4536 25.3125C21.2081 25.0244 20.8487 24.2901 21.3755 23.1094C21.6856 22.8061 22.045 22.6186 22.4536 22.5469ZM25.2661 28.1719C29.0788 28.1562 32.8913 28.1719 36.7036 28.2188C37.3166 28.2512 37.7384 28.5481 37.9693 29.1094C38.1371 30.1344 37.7152 30.7437 36.7036 30.9375C32.8911 31.0001 29.0787 31.0001 25.2661 30.9375C24.0206 30.6494 23.6612 29.9151 24.188 28.7344C24.4981 28.4311 24.8575 28.2436 25.2661 28.1719Z" fill="white"/>
</g>
<defs>
<clipPath id="clip0_75_880">
<rect width="48" height="48" fill="white"/>
</clipPath>
</defs>
</svg>
