<svg width="40" height="40" viewBox="0 0 40 40" fill="none" xmlns="http://www.w3.org/2000/svg">
<path d="M34.175 8.00015L21.675 1.65015C21.1546 1.3913 20.5813 1.25659 20 1.25659C19.4188 1.25659 18.8455 1.3913 18.325 1.65015L5.82504 8.00015C5.19814 8.31901 4.67216 8.80577 4.30576 9.40612C3.93937 10.0065 3.74697 10.6968 3.75004 11.4001V28.6001C3.74697 29.3035 3.93937 29.9938 4.30576 30.5942C4.67216 31.1945 5.19814 31.6813 5.82504 32.0001L18.325 38.3501C18.8442 38.6131 19.418 38.7502 20 38.7502C20.582 38.7502 21.1558 38.6131 21.675 38.3501L34.175 32.0001C34.8019 31.6813 35.3279 31.1945 35.6943 30.5942C36.0607 29.9938 36.2531 29.3035 36.25 28.6001V11.4001C36.2531 10.6968 36.0607 10.0065 35.6943 9.40612C35.3279 8.80577 34.8019 8.31901 34.175 8.00015ZM27.125 16.7251L18.8 25.0501C18.5689 25.2852 18.2546 25.4199 17.925 25.4251C17.7577 25.4251 17.592 25.3919 17.4376 25.3276C17.2831 25.2632 17.1429 25.1689 17.025 25.0501L12.875 20.8751C12.6468 20.6423 12.5197 20.3288 12.5214 20.0027C12.523 19.6767 12.6533 19.3645 12.8838 19.1339C13.1144 18.9034 13.4266 18.7731 13.7526 18.7715C14.0787 18.7699 14.3922 18.8969 14.625 19.1251L17.925 22.4001L25.375 14.9501C25.4879 14.8316 25.6236 14.7373 25.774 14.6728C25.9244 14.6084 26.0864 14.5751 26.25 14.5751C26.4137 14.5751 26.5756 14.6084 26.726 14.6728C26.8764 14.7373 27.0122 14.8316 27.125 14.9501C27.2437 15.0655 27.3381 15.2035 27.4025 15.3559C27.4669 15.5083 27.5001 15.6722 27.5001 15.8376C27.5001 16.0031 27.4669 16.167 27.4025 16.3194C27.3381 16.4718 27.2437 16.6098 27.125 16.7251Z" fill="#9AACC2"/>
</svg>
