<svg width="48" height="48" viewBox="0 0 48 48" fill="none" xmlns="http://www.w3.org/2000/svg">
<g clip-path="url(#clip0_75_864)">
<path opacity="0.977" fill-rule="evenodd" clip-rule="evenodd" d="M47.9531 10.5469C47.9531 11.1406 47.9531 11.7344 47.9531 12.3281C47.793 12.7277 47.6212 13.134 47.4375 13.5469C46.7245 14.6286 45.9433 15.6598 45.0938 16.6406C44.2118 17.5739 43.1336 18.1521 41.8594 18.375C40.0861 18.6141 38.3048 18.7704 36.5156 18.8438C34.8712 20.5195 33.1993 22.1602 31.5 23.7656C30.8431 23.1557 30.1713 22.562 29.4844 21.9844C30.0141 21.0828 30.1859 20.1141 30 19.0781C29.7053 17.68 29.2522 16.3363 28.6406 15.0469C29.2955 14.3451 29.9674 13.6576 30.6562 12.9844C30.7173 11.163 30.8735 9.35054 31.125 7.54689C31.3376 6.52794 31.7752 5.62169 32.4375 4.82814C33.5157 3.78194 34.6876 2.86007 35.9531 2.06252C37.4286 1.29997 38.8973 1.33122 40.3594 2.15627C40.7911 2.46224 41.0723 2.86849 41.2031 3.37502C41.1474 3.6366 41.038 3.87097 40.875 4.07814C39.6875 5.26564 38.5 6.45314 37.3125 7.64064C36.9919 8.21904 37.0232 8.78154 37.4062 9.32814C38.3281 10.25 39.25 11.1719 40.1719 12.0938C40.8746 12.5549 41.5309 12.4925 42.1406 11.9063C43.2656 10.7813 44.3906 9.65627 45.5156 8.53127C45.9218 8.21877 46.3282 8.21877 46.7344 8.53127C47.3475 9.08698 47.7538 9.75883 47.9531 10.5469Z" fill="white"/>
<path opacity="0.975" fill-rule="evenodd" clip-rule="evenodd" d="M-0.046875 17.3906C-0.046875 16.9844 -0.046875 16.5781 -0.046875 16.1719C0.0836548 16.0057 0.193029 15.8182 0.28125 15.6094C2.42187 13.4688 4.5625 11.3281 6.70312 9.18752C7.47371 8.74669 8.22371 8.77794 8.95312 9.28127C9.59372 9.92187 10.2344 10.5626 10.875 11.2031C11.2355 11.6428 11.4698 12.1428 11.5781 12.7031C11.5342 13.0382 11.4248 13.3508 11.25 13.6406C9.29955 15.6849 7.31518 17.7005 5.29688 19.6875C5.0103 19.9428 4.6978 20.1615 4.35938 20.3438C3.73031 20.5715 3.13657 20.5091 2.57812 20.1563C1.5838 19.3342 0.708805 18.4123 -0.046875 17.3906Z" fill="white"/>
<path opacity="0.981" fill-rule="evenodd" clip-rule="evenodd" d="M20.859 12.3282C24.0337 12.2347 26.2994 13.6098 27.6559 16.4532C28.0853 17.5773 28.3822 18.7337 28.5465 19.9219C28.4617 21.2003 27.8054 22.0284 26.5777 22.4063C25.3141 22.6568 24.3609 22.2349 23.7184 21.1407C23.3483 20.2234 23.0359 19.2859 22.7809 18.3282C22.7183 18.2657 22.6559 18.2032 22.5934 18.1407C18.4684 22.2657 14.3434 26.3907 10.2184 30.5157C8.46836 28.7657 6.71837 27.0157 4.96837 25.2657C4.45267 24.5328 4.42141 23.7828 4.87462 23.0157C8.20013 19.5964 11.5595 16.2058 14.9527 12.8438C16.9285 12.6446 18.8973 12.4727 20.859 12.3282Z" fill="white"/>
<path opacity="0.958" fill-rule="evenodd" clip-rule="evenodd" d="M21.9844 21.5156C22.0946 21.4951 22.1883 21.5263 22.2657 21.6094C22.6787 22.3818 23.2412 23.0224 23.9532 23.5313C23.8064 23.8465 23.697 24.1747 23.625 24.5156C21.935 24.9556 20.8725 26.0182 20.4375 27.7031C18.75 28.1407 17.6876 29.2031 17.25 30.8906C14.6138 31.7572 13.6138 33.5384 14.25 36.2344C14.7634 37.2481 15.4821 38.0918 16.4063 38.7656C16.4688 38.8282 16.4688 38.8906 16.4063 38.9531C14.1352 41.2868 11.8071 43.5524 9.42192 45.75C7.37677 46.8281 5.54864 46.5313 3.93754 44.8594C2.80067 43.2206 2.76943 41.5644 3.84379 39.8906C9.84182 33.7208 15.8887 27.5957 21.9844 21.5156ZM6.98442 39.7969C8.77915 39.7634 9.63848 40.6384 9.56254 42.4219C8.89296 43.9683 7.78359 44.3902 6.23442 43.6875C5.18406 42.6204 5.12156 41.4954 6.04692 40.3125C6.35317 40.1128 6.66567 39.941 6.98442 39.7969Z" fill="white"/>
<path opacity="0.98" fill-rule="evenodd" clip-rule="evenodd" d="M28.2664 23.2031C28.4805 23.2132 28.668 23.2913 28.8289 23.4375C30.7482 25.2629 32.6388 27.1223 34.5008 29.0156C35.517 30.5212 35.2514 31.7555 33.7039 32.7187C33.0412 33.0299 32.385 33.0142 31.7352 32.6719C32.1236 33.8512 31.8424 34.8667 30.8914 35.7187C30.1309 36.0945 29.3496 36.1414 28.5477 35.8594C29.0311 37.3481 28.5623 38.4575 27.1414 39.1875C26.5086 39.4018 25.8993 39.3549 25.3133 39.0469C25.8468 40.7455 25.2687 41.8861 23.5789 42.4687C22.833 42.5871 22.1767 42.3996 21.6102 41.9062C19.7509 40.0469 17.8914 38.1875 16.0321 36.3281C15.1466 35.0699 15.2872 33.9293 16.4539 32.9062C17.2754 32.4195 18.1191 32.357 18.9852 32.7187C18.3731 31.1497 18.8419 30.0247 20.3914 29.3437C20.9371 29.2547 21.4684 29.3016 21.9852 29.4844C21.6443 28.3374 21.9256 27.3531 22.8289 26.5312C23.6341 26.0294 24.4622 25.9825 25.3133 26.3906C25.2378 26.0245 25.1597 25.6495 25.0789 25.2656C25.1099 24.8292 25.2349 24.423 25.4539 24.0469C26.5004 24.0828 27.4379 23.8015 28.2664 23.2031Z" fill="white"/>
</g>
<defs>
<clipPath id="clip0_75_864">
<rect width="48" height="48" fill="white"/>
</clipPath>
</defs>
</svg>
