<svg width="48" height="48" viewBox="0 0 48 48" fill="none" xmlns="http://www.w3.org/2000/svg">
<g clip-path="url(#clip0_75_850)">
<path opacity="0.986" fill-rule="evenodd" clip-rule="evenodd" d="M22.7344 -0.046875C23.9219 -0.046875 25.1093 -0.046875 26.2969 -0.046875C33.0152 0.874598 37.8121 4.40585 40.6875 10.5469C41.4202 12.3216 41.8733 14.1653 42.0469 16.0781C39.1718 16.0781 36.2969 16.0781 33.4219 16.0781C32.6993 12.2772 30.4807 9.82416 26.7656 8.71875C22.8367 7.92408 19.6336 9.09595 17.1562 12.2344C16.2943 13.4448 15.763 14.7886 15.5625 16.2656C15.5156 18.8904 15.5 21.5154 15.5156 24.1406C12.6719 24.1406 9.82809 24.1406 6.98437 24.1406C6.96875 21.3279 6.98437 18.5154 7.03125 15.7031C7.92561 8.96765 11.4412 4.17077 17.5781 1.3125C19.2503 0.636787 20.9691 0.183662 22.7344 -0.046875Z" fill="white"/>
<path opacity="0.983" fill-rule="evenodd" clip-rule="evenodd" d="M33.6094 18.7969C36.4531 18.7969 39.2969 18.7969 42.1406 18.7969C42.1793 20.4258 42.1324 22.0508 42 23.6719C41.8594 24.0625 41.5938 24.3281 41.2031 24.4688C38.9531 24.5313 36.7031 24.5313 34.4531 24.4688C34.0625 24.3281 33.7969 24.0625 33.6563 23.6719C33.6094 22.0472 33.5937 20.4222 33.6094 18.7969Z" fill="white"/>
<path opacity="0.989" fill-rule="evenodd" clip-rule="evenodd" d="M16.4531 47.9531C12.9532 47.9531 9.4531 47.9531 5.95313 47.9531C5.58011 47.783 5.31448 47.5017 5.15625 47.1094C5.09375 40.6719 5.09375 34.2344 5.15625 27.7969C5.29688 27.4062 5.5625 27.1406 5.95313 27C9.4531 26.9375 12.9532 26.9375 16.4531 27C17.0107 27.2773 17.3076 27.7304 17.3438 28.3594C17.3906 30.9217 17.4063 33.4842 17.3906 36.0469C18.4844 36.0469 19.5781 36.0469 20.6719 36.0469C20.6562 34.859 20.6719 33.6715 20.7188 32.4844C21.1264 31.6955 21.767 31.4299 22.6406 31.6875C23.1982 31.9648 23.4951 32.4179 23.5313 33.0469C23.5938 35.9844 23.5938 38.9219 23.5313 41.8594C23.3479 43.0089 22.676 43.4621 21.5156 43.2188C21.125 43.0781 20.8594 42.8126 20.7188 42.4219C20.6719 41.2348 20.6562 40.0473 20.6719 38.8594C19.5781 38.8594 18.4844 38.8594 17.3906 38.8594C17.4063 41.4221 17.3906 43.9846 17.3438 46.5469C17.2877 47.1787 16.9908 47.6474 16.4531 47.9531Z" fill="white"/>
<path opacity="0.98" fill-rule="evenodd" clip-rule="evenodd" d="M37.4534 27.5155C37.8828 27.4792 38.2891 27.5574 38.6722 27.7498C40.7042 29.7523 42.0636 32.143 42.7503 34.9217C43.1615 38.0085 41.8647 39.9304 38.8597 40.6873C36.8365 41.0234 35.1333 40.4453 33.7503 38.953C32.9025 37.7379 32.6213 36.3941 32.9066 34.9217C33.5933 32.143 34.9527 29.7523 36.9847 27.7498C37.1549 27.6789 37.311 27.6008 37.4534 27.5155Z" fill="white"/>
</g>
<defs>
<clipPath id="clip0_75_850">
<rect width="48" height="48" fill="white"/>
</clipPath>
</defs>
</svg>
