<svg width="64" height="64" viewBox="0 0 64 64" fill="none" xmlns="http://www.w3.org/2000/svg">
<g clip-path="url(#clip0_69_139)">
<path d="M38.7374 35.3875C38.7374 30.575 32 22.875 32 22.875C32 22.875 25.2625 30.575 25.2625 35.3875C25.2625 39.1085 28.279 42.125 32 42.125C35.721 42.125 38.7374 39.1085 38.7374 35.3875Z" fill="#9AACC2"/>
<path d="M64 37.8424V26.1577H56.5469C55.9193 23.5111 54.875 21.0263 53.4868 18.7756L58.7586 13.5037L50.4963 5.24137L45.2245 10.5131C42.9737 9.125 40.4889 8.08075 37.8424 7.45312V0H26.1577V7.45312C23.5111 8.08075 21.0262 9.125 18.7755 10.5133L13.5037 5.24137L5.24137 13.5037L10.5133 18.7756C9.125 21.0263 8.08075 23.5111 7.45312 26.1576H0V37.8423H7.45312C8.08075 40.4889 9.125 42.9737 10.5133 45.2245L5.24137 50.4963L13.5036 58.7585L18.7754 53.4868C21.026 54.8749 23.511 55.9193 26.1575 56.5469V64H37.8421V56.5469C40.4888 55.9193 42.9736 54.875 45.2243 53.4868L50.496 58.7585L58.7583 50.4963L53.4864 45.2245C54.8746 42.9739 55.9189 40.4889 56.5465 37.8424H64ZM32 48C23.1635 48 16 40.8365 16 32C16 23.1635 23.1635 16 32 16C40.8365 16 48 23.1635 48 32C48 40.8365 40.8365 48 32 48Z" fill="#9AACC2"/>
</g>
<defs>
<clipPath id="clip0_69_139">
<rect width="64" height="64" fill="white"/>
</clipPath>
</defs>
</svg>
