<svg width="64" height="64" viewBox="0 0 64 64" fill="none" xmlns="http://www.w3.org/2000/svg">
<g clip-path="url(#clip0_75_966)">
<path d="M62.125 26.5001H33.875V7.50012C33.875 5.43237 35.5573 3.75012 37.625 3.75012C39.6927 3.75012 41.375 5.43237 41.375 7.50012V13.1251C41.375 14.1606 42.2145 15.0001 43.25 15.0001C44.2855 15.0001 45.125 14.1606 45.125 13.1251V7.50012C45.125 3.36462 41.7605 0.00012207 37.625 0.00012207C33.4895 0.00012207 30.125 3.36462 30.125 7.50012V15.0001H26.375V13.1251C26.375 12.0896 25.5355 11.2501 24.5 11.2501C23.4645 11.2501 22.625 12.0896 22.625 13.1251V20.6251C22.625 21.6606 23.4645 22.5001 24.5 22.5001C25.5355 22.5001 26.375 21.6606 26.375 20.6251V18.7501H30.125V26.5001H1.875C0.8395 26.5001 0 27.3396 0 28.3751C0 29.4106 0.8395 30.2501 1.875 30.2501H3.95863C4.89275 41.0615 13.6869 52.7501 24.5 52.7501H39.5C50.3106 52.7501 59.1069 41.0616 60.0412 30.2501H62.125C63.1605 30.2501 64 29.4106 64 28.3751C64 27.3396 63.1605 26.5001 62.125 26.5001Z" fill="#9AACC2"/>
<path d="M26.375 58.3751C26.375 61.4764 28.8988 64.0001 32 64.0001C35.1012 64.0001 37.625 61.4764 37.625 58.3751V56.5001H26.375V58.3751Z" fill="#9AACC2"/>
</g>
<defs>
<clipPath id="clip0_75_966">
<rect width="64" height="64" fill="white"/>
</clipPath>
</defs>
</svg>
