<svg width="64" height="64" viewBox="0 0 64 64" fill="none" xmlns="http://www.w3.org/2000/svg">
<path d="M34.0649 18.8751H43.8047L46.772 29.4254C50.1982 28.0289 52.625 24.6725 52.625 20.7501C52.625 15.5812 43.25 1.00012 43.25 1.00012C43.25 1.00012 34.936 14.6012 34.0649 18.8751Z" fill="#9AACC2"/>
<path d="M15.125 64.0001H33.875V60.2501H26.375V56.3751H22.625V60.2501H15.125V64.0001Z" fill="#9AACC2"/>
<path d="M20.0332 30.1251H29.7168L29.1108 22.6251H20.6396L20.0332 30.1251Z" fill="#9AACC2"/>
<path d="M3.5127 41.3751H15.3608L15.9673 33.8751H5.62207L3.5127 41.3751Z" fill="#9AACC2"/>
<path d="M19.124 41.3751H30.6255L30.0195 33.8751H19.7305L19.124 41.3751Z" fill="#9AACC2"/>
<path d="M18.2144 52.6251H31.5347L30.9287 45.1251H18.8208L18.2144 52.6251Z" fill="#9AACC2"/>
<path d="M46.2383 41.3751L44.1289 33.8751H33.7827L34.3887 41.3751H46.2383Z" fill="#9AACC2"/>
<path d="M32.874 22.6251L33.48 30.1251H43.0742L40.9648 22.6251H32.874Z" fill="#9AACC2"/>
<path d="M49.4023 52.6251L47.293 45.1251H34.6914L35.2974 52.6251H49.4023Z" fill="#9AACC2"/>
<path d="M0 52.6251H14.4517L15.0581 45.1251H2.33252L0 52.6251Z" fill="#9AACC2"/>
<path d="M6.67627 30.1251H16.2705L16.877 22.6251H8.78564L6.67627 30.1251Z" fill="#9AACC2"/>
</svg>
