<svg width="64" height="64" viewBox="0 0 64 64" fill="none" xmlns="http://www.w3.org/2000/svg">
<g clip-path="url(#clip0_75_1053)">
<mask id="mask0_75_1053" style="mask-type:luminance" maskUnits="userSpaceOnUse" x="0" y="-25" width="64" height="89">
<path d="M64 0H0V64H64V0Z" fill="white"/>
<path d="M51.7312 -0.3125L41.6161 -2.573L45.9208 -21.8359L56.036 -19.5754L51.7312 -0.3125Z" stroke="black" stroke-width="3.75" stroke-miterlimit="10"/>
<path d="M12.2747 -0.3125L22.3898 -2.573L18.0851 -21.8359L7.96997 -19.5754L12.2747 -0.3125Z" stroke="black" stroke-width="3.75" stroke-miterlimit="10"/>
<path d="M56.6627 26.4669C56.6627 31.5583 52.5352 35.6858 47.4438 35.6858C42.3525 35.6858 38.225 31.5583 38.225 26.4669C38.225 21.3755 47.4438 10.2482 47.4438 10.2482C47.4438 10.2482 56.6627 21.3755 56.6627 26.4669Z" fill="white"/>
<path d="M30.8172 39.8908V8.87479C30.8172 5.00879 27.6832 1.87479 23.8172 1.87479C19.951 1.87479 16.8172 5.00879 16.8172 8.87479V39.8908C13.6465 42.111 11.5783 45.7977 11.5985 49.9668C11.6308 56.5919 17.0185 62.0314 23.643 62.1235C30.471 62.2187 36.0359 56.7122 36.0359 49.906C36.0359 45.7619 33.9723 42.1002 30.8172 39.8908Z" fill="white"/>
<path d="M28.2471 49.9062C28.2471 52.3527 26.2638 54.3359 23.8173 54.3359C21.3707 54.3359 19.3873 52.3527 19.3873 49.9062C19.3873 47.4597 21.3707 45.4764 23.8173 45.4764C26.2638 45.4764 28.2471 47.4597 28.2471 49.9062Z" stroke="black" stroke-width="3.75" stroke-miterlimit="10"/>
<path d="M23.8173 9.25V46.5" stroke="black" stroke-width="3.75" stroke-miterlimit="10"/>
</mask>
<g mask="url(#mask0_75_1053)">
<mask id="mask1_75_1053" style="mask-type:luminance" maskUnits="userSpaceOnUse" x="0" y="0" width="64" height="64">
<path d="M0 3.8147e-06H64V64H0V3.8147e-06Z" fill="white"/>
</mask>
<g mask="url(#mask1_75_1053)">
<path d="M51.7312 -0.3125L41.6161 -2.573L45.9208 -21.8359L56.036 -19.5754L51.7312 -0.3125Z" stroke="white" stroke-width="3.75" stroke-miterlimit="10"/>
<path d="M12.2747 -0.3125L22.3898 -2.573L18.0851 -21.8359L7.96997 -19.5754L12.2747 -0.3125Z" stroke="white" stroke-width="3.75" stroke-miterlimit="10"/>
</g>
<mask id="mask2_75_1053" style="mask-type:luminance" maskUnits="userSpaceOnUse" x="0" y="0" width="64" height="64">
<path d="M0 3.8147e-06H64V64H0V3.8147e-06Z" fill="white"/>
</mask>
<g mask="url(#mask2_75_1053)">
<path d="M56.6627 26.4669C56.6627 31.5583 52.5352 35.6858 47.4438 35.6858C42.3525 35.6858 38.225 31.5583 38.225 26.4669C38.225 21.3755 47.4438 10.2482 47.4438 10.2482C47.4438 10.2482 56.6627 21.3755 56.6627 26.4669Z" fill="#9AACC2"/>
<path d="M30.8173 39.891V8.87503C30.8173 5.00903 27.6833 1.87504 23.8173 1.87504C19.9512 1.87504 16.8173 5.00903 16.8173 8.87503V39.891C13.6467 42.1113 11.5784 45.7979 11.5987 49.967C11.6309 56.5922 17.0187 62.0317 23.6432 62.1238C30.4712 62.2189 36.036 56.7124 36.036 49.9063C36.036 45.7622 33.9724 42.1004 30.8173 39.891Z" fill="#9AACC2"/>
<path d="M56.6627 26.4669C56.6627 31.5583 52.5352 35.6858 47.4438 35.6858C42.3525 35.6858 38.225 31.5583 38.225 26.4669C38.225 21.3755 47.4438 10.2482 47.4438 10.2482C47.4438 10.2482 56.6627 21.3755 56.6627 26.4669Z" stroke="#9AACC2" stroke-width="3.75" stroke-miterlimit="10"/>
<path d="M28.2471 49.9062C28.2471 52.3527 26.2638 54.3359 23.8173 54.3359C21.3707 54.3359 19.3873 52.3527 19.3873 49.9062C19.3873 47.4597 21.3707 45.4764 23.8173 45.4764C26.2638 45.4764 28.2471 47.4597 28.2471 49.9062Z" stroke="white" stroke-width="3.75" stroke-miterlimit="10"/>
<path d="M30.8173 39.891V8.87503C30.8173 5.00903 27.6833 1.87504 23.8173 1.87504C19.9512 1.87504 16.8173 5.00903 16.8173 8.87503V39.891C13.6467 42.1113 11.5784 45.7979 11.5987 49.967C11.6309 56.5922 17.0187 62.0317 23.6432 62.1238C30.4712 62.2189 36.036 56.7124 36.036 49.9063C36.036 45.7622 33.9724 42.1004 30.8173 39.891Z" stroke="#9AACC2" stroke-width="3.75" stroke-miterlimit="10"/>
<path d="M23.8173 9.25V46.5" stroke="white" stroke-width="3.75" stroke-miterlimit="10"/>
</g>
</g>
</g>
<defs>
<clipPath id="clip0_75_1053">
<rect width="64" height="64" fill="white"/>
</clipPath>
</defs>
</svg>
