<svg width="37" height="38" viewBox="0 0 37 38" fill="none" xmlns="http://www.w3.org/2000/svg">
<g clip-path="url(#clip0_296_920)">
<path d="M30.1645 6.09251V8.24606C23.624 8.34237 18.3326 13.6919 18.3326 20.255V24.916C18.3326 26.9919 16.6438 28.6807 14.5679 28.6807C12.492 28.6807 10.8032 26.9919 10.8032 24.916V9.3194H12.9544V2.86562H10.8032V0.714355H8.65192V2.86562H4.3494V0.714355H2.19814V2.86562H0.046875V9.3194H2.19814V24.916C2.19814 31.7368 7.74717 37.2858 14.5679 37.2858C21.3886 37.2858 26.9376 31.7368 26.9376 24.916V20.6852C26.9376 18.7773 28.3378 17.1907 30.1645 16.8978V19.0001H36.6183V6.09251H30.1645ZM2.19814 5.01688H10.8032V7.16814H2.19814V5.01688ZM8.65192 9.3194V24.8348C8.2449 25.0006 7.79887 25.085 7.33821 25.0708C6.28281 25.039 5.23105 25.4479 4.42935 26.1953C4.28801 25.0686 4.37686 25.8403 4.3494 9.3194H8.65192ZM14.5679 35.1345C10.1937 35.1345 6.45333 32.3717 4.99858 28.4997C5.30291 28.3008 5.58795 28.0716 5.84718 27.8144C6.24279 27.4218 6.76153 27.2055 7.27296 27.2211C7.8746 27.2393 8.4639 27.1572 9.02545 26.9836C10.2656 30.2972 14.1118 31.7843 17.2423 30.1904C18.1877 30.8666 19.3469 31.2347 20.5563 31.1936C21.0699 31.1759 21.5472 31.3583 21.869 31.6936C21.9271 31.7541 21.9869 31.8127 22.0476 31.8702C20.1806 33.8769 17.5186 35.1345 14.5679 35.1345ZM24.7864 20.6852V24.916C24.7864 26.8211 24.2618 28.6057 23.3503 30.134C22.6093 29.4034 21.57 29.0059 20.4831 29.0435C19.9777 29.0607 19.4925 28.9595 19.0558 28.7642C19.9447 27.7288 20.4839 26.3846 20.4839 24.916V20.255C20.4839 14.8779 24.8099 10.4923 30.1645 10.3967V14.7284C27.1481 15.0347 24.7864 17.5893 24.7864 20.6852ZM34.467 16.8488H32.3158V8.24377H34.467V16.8488Z" fill="white"/>
</g>
<defs>
<clipPath id="clip0_296_920">
<rect width="36.5714" height="36.5714" fill="white" transform="translate(0.046875 0.714355)"/>
</clipPath>
</defs>
</svg>
