<svg width="38" height="38" viewBox="0 0 38 38" fill="none" xmlns="http://www.w3.org/2000/svg">
<g clip-path="url(#clip0_548_3809)">
<path d="M31.9284 6.06986C28.4748 2.61635 23.883 0.714355 18.9989 0.714355C14.1148 0.714355 9.52302 2.61635 6.06937 6.06986C2.61586 9.52351 0.713867 14.1153 0.713867 18.9994C0.713867 23.8834 2.61586 28.4752 6.06937 31.9289C9.52302 35.3824 14.1148 37.2844 18.9989 37.2844C23.883 37.2844 28.4748 35.3824 31.9284 31.9289C35.3819 28.4752 37.2839 23.8834 37.2839 18.9994C37.2839 14.1153 35.3819 9.52351 31.9284 6.06986ZM18.9989 36.213C9.50724 36.213 1.78525 28.491 1.78525 18.9994C1.78525 9.50773 9.50724 1.78574 18.9989 1.78574C28.4905 1.78574 36.2125 9.50773 36.2125 18.9994C36.2125 28.491 28.4905 36.213 18.9989 36.213Z" fill="white"/>
<path d="M22.2026 21.951C21.5977 22.6073 20.8198 23.0566 19.953 23.2503C19.7082 23.3051 19.5342 23.5223 19.5342 23.7731V25.9539C19.5342 26.1102 19.6023 26.2586 19.7208 26.3604C19.8187 26.4444 19.9427 26.4896 20.0699 26.4896C20.0967 26.4896 20.1238 26.4876 20.1508 26.4835C22.022 26.1976 23.7093 25.2231 24.902 23.7396C24.9999 23.6177 25.0398 23.4591 25.011 23.3054C24.9822 23.1517 24.8877 23.0182 24.7523 22.9401L22.8644 21.8501C22.6474 21.7248 22.3724 21.7667 22.2026 21.951ZM20.6056 25.2993V24.1847C21.3809 23.9455 22.0881 23.537 22.6849 22.9836L23.6489 23.5402C22.8122 24.3985 21.7617 25.0058 20.6056 25.2993Z" fill="white"/>
<path d="M19.5343 30.2698C19.5343 30.4206 19.5978 30.5644 19.7092 30.6658C19.8084 30.7561 19.9371 30.8055 20.0699 30.8055C20.0865 30.8055 20.1033 30.8047 20.12 30.8031C23.5437 30.4817 26.6564 28.6851 28.66 25.8738C28.7476 25.7509 28.7792 25.5967 28.7472 25.4491C28.7152 25.3016 28.6223 25.1744 28.4916 25.099L26.6253 24.0215C26.3902 23.8858 26.0907 23.9474 25.9282 24.165C24.5097 26.0647 22.3519 27.3106 20.008 27.5831C19.738 27.6145 19.5342 27.8433 19.5342 28.1152V30.2698H19.5343ZM20.6056 28.5801C22.9001 28.1957 25.0033 26.9813 26.4916 25.1814L27.4314 25.724C25.7299 27.856 23.293 29.2631 20.6056 29.6652V28.5801Z" fill="white"/>
<path d="M18.9985 5C16.8946 5 14.8711 5.45584 12.9841 6.35495C12.717 6.48216 12.6037 6.80186 12.7309 7.06899C12.8581 7.33605 13.1779 7.4494 13.445 7.32212C15.1868 6.49223 17.0553 6.07139 18.9985 6.07139C26.1271 6.07139 31.9265 11.8709 31.9265 18.9995C31.9265 26.128 26.1271 31.9275 18.9985 31.9275C11.8699 31.9275 6.07041 26.128 6.07041 18.9995C6.07041 14.7505 8.16154 10.7705 11.6643 8.35273C11.9078 8.18466 11.9689 7.85103 11.8008 7.60754C11.6327 7.36405 11.2992 7.30291 11.0556 7.47097C7.26322 10.0887 4.99902 14.3984 4.99902 18.9995C4.99902 26.7188 11.2791 32.9989 18.9985 32.9989C26.7178 32.9989 32.9979 26.7188 32.9979 18.9995C32.9979 11.2801 26.7178 5 18.9985 5Z" fill="white"/>
<path d="M23.4017 20.9231L25.2895 22.0129C25.3719 22.0605 25.4644 22.0847 25.5574 22.0847C25.6172 22.0847 25.6774 22.0746 25.7351 22.0544C25.8825 22.0025 25.9999 21.8889 26.0566 21.7432C26.3971 20.8683 26.5696 19.9451 26.5696 18.9994C26.5696 18.0537 26.3971 17.1306 26.0566 16.2555C25.9999 16.1099 25.8825 15.9962 25.7351 15.9444C25.5878 15.8926 25.425 15.9076 25.2895 15.9858L23.4017 17.0757C23.1846 17.201 23.0835 17.46 23.1582 17.6993C23.2891 18.1185 23.3555 18.5559 23.3555 18.9994C23.3555 19.4429 23.2891 19.8803 23.1582 20.2994C23.0835 20.5387 23.1846 20.7978 23.4017 20.9231ZM24.2933 17.7982L25.2578 17.2414C25.4175 17.8107 25.4983 18.3997 25.4983 18.9994C25.4983 19.5992 25.4175 20.1882 25.2578 20.7575L24.2933 20.2007C24.382 19.8082 24.4269 19.4058 24.4269 18.9995C24.4269 18.5932 24.382 18.1907 24.2933 17.7982Z" fill="white"/>
<path d="M17.8777 7.1957C14.4541 7.51712 11.3414 9.31376 9.33775 12.125C9.25012 12.2479 9.21847 12.4021 9.25047 12.5497C9.28254 12.6972 9.3754 12.8244 9.50611 12.8998L11.3724 13.9773C11.4564 14.0258 11.5486 14.0491 11.6399 14.0491C11.804 14.0491 11.9651 13.9737 12.0695 13.8339C13.488 11.9341 15.6459 10.6882 17.9897 10.4157C18.2598 10.3844 18.4635 10.1555 18.4635 9.8836V7.72904C18.4635 7.57826 18.4 7.43441 18.2885 7.33298C18.1769 7.23141 18.0276 7.18163 17.8777 7.1957ZM17.3921 9.41876C15.0975 9.80317 12.9943 11.0176 11.5061 12.8174L10.5663 12.2748C12.2678 10.1428 14.7048 8.73571 17.392 8.33366V9.41876H17.3921Z" fill="white"/>
<path d="M17.8777 30.8027C17.8945 30.8042 17.9112 30.805 17.9279 30.805C18.0607 30.805 18.1894 30.7557 18.2885 30.6654C18.4 30.5639 18.4636 30.42 18.4636 30.2693V28.1148C18.4636 27.8429 18.2599 27.6141 17.9897 27.5827C15.6459 27.3101 13.4881 26.0642 12.0695 24.1645C11.907 23.9469 11.6076 23.8852 11.3724 24.0211L9.50614 25.0985C9.37536 25.174 9.28257 25.3012 9.2505 25.4487C9.21843 25.5962 9.25015 25.7504 9.33779 25.8734C11.3413 28.6846 14.4541 30.4812 17.8777 30.8027ZM11.5061 25.181C12.9944 26.9808 15.0976 28.1953 17.3921 28.5796V29.6646C14.7048 29.2626 12.2678 27.8555 10.5663 25.7235L11.5061 25.181Z" fill="white"/>
<path d="M10.8356 14.9047L8.96929 13.8272C8.83865 13.7518 8.68223 13.7348 8.53859 13.7808C8.39489 13.8266 8.27718 13.9309 8.21439 14.068C7.50314 15.6208 7.14258 17.28 7.14258 18.9994C7.14258 20.7188 7.50314 22.378 8.21432 23.9308C8.2771 24.0679 8.39481 24.1722 8.53852 24.2181C8.59174 24.2351 8.64659 24.2434 8.7013 24.2434C8.79444 24.2434 8.88694 24.2191 8.96915 24.1716L10.8355 23.0941C11.0709 22.9583 11.1672 22.6676 11.0596 22.4181C10.5932 21.3364 10.3567 20.1861 10.3567 18.9994C10.3567 17.8127 10.5932 16.6624 11.0597 15.5808C11.1673 15.3312 11.071 15.0406 10.8356 14.9047ZM9.89733 22.3987L8.95722 22.9415C8.46374 21.6882 8.21396 20.3649 8.21396 18.9994C8.21396 17.634 8.46374 16.3107 8.95722 15.0573L9.89733 15.6001C9.49099 16.6855 9.28535 17.8268 9.28535 18.9994C9.28535 20.172 9.49099 21.3133 9.89733 22.3987Z" fill="white"/>
<path d="M12.2623 15.9444C12.1149 15.9963 11.9975 16.1099 11.9408 16.2556C11.6004 17.1306 11.4277 18.0538 11.4277 18.9994C11.4277 19.945 11.6004 20.8682 11.9408 21.7433C11.9974 21.8889 12.1149 22.0025 12.2623 22.0544C12.3201 22.0748 12.3801 22.0848 12.44 22.0848C12.533 22.0848 12.6255 22.0605 12.7078 22.013L14.5956 20.9231C14.8127 20.7978 14.9138 20.5387 14.8391 20.2995C14.7082 19.8802 14.6419 19.4428 14.6419 18.9994C14.6419 18.556 14.7082 18.1185 14.8392 17.6993C14.9139 17.46 14.8127 17.201 14.5957 17.0757L12.7079 15.9858C12.5725 15.9076 12.4098 15.8926 12.2623 15.9444ZM13.7041 17.7981C13.6154 18.1908 13.5705 18.5932 13.5705 18.9994C13.5705 19.4056 13.6154 19.808 13.7041 20.2006L12.7398 20.7574C12.5798 20.188 12.4991 19.5991 12.4991 18.9994C12.4991 18.3997 12.5798 17.8107 12.7397 17.2413L13.7041 17.7981Z" fill="white"/>
<path d="M15.7129 18.9995C15.7129 20.8111 17.1868 22.285 18.9985 22.285C20.8101 22.285 22.2841 20.8111 22.2841 18.9995C22.2841 17.1878 20.8101 15.7139 18.9985 15.7139C17.1868 15.7139 15.7129 17.1878 15.7129 18.9995ZM21.2127 18.9995C21.2127 20.2203 20.2194 21.2137 18.9985 21.2137C17.7776 21.2137 16.7843 20.2203 16.7843 18.9995C16.7843 17.7786 17.7776 16.7853 18.9985 16.7853C20.2194 16.7853 21.2127 17.7786 21.2127 18.9995Z" fill="white"/>
<path d="M29.2967 24.2434C29.3515 24.2434 29.4064 24.235 29.4596 24.218C29.6033 24.1722 29.7209 24.0679 29.7838 23.9308C30.4949 22.378 30.8555 20.7187 30.8555 18.9994C30.8555 17.28 30.4949 15.6208 29.7838 14.068C29.7209 13.9309 29.6033 13.8266 29.4596 13.7807C29.316 13.7349 29.1596 13.7517 29.0289 13.8272L27.1625 14.9047C26.9271 15.0405 26.8308 15.3312 26.9384 15.5807C27.4048 16.6624 27.6414 17.8126 27.6414 18.9994C27.6414 20.1862 27.4048 21.3364 26.9384 22.418C26.8308 22.6676 26.9271 22.9582 27.1625 23.0941L29.0289 24.1716C29.1112 24.2192 29.2037 24.2434 29.2967 24.2434ZM28.1008 15.6001L29.0409 15.0573C29.5344 16.3106 29.7842 17.6339 29.7842 18.9994C29.7842 20.3648 29.5344 21.6881 29.0409 22.9414L28.1008 22.3987C28.5071 21.3133 28.7128 20.172 28.7128 18.9994C28.7128 17.8268 28.5071 16.6855 28.1008 15.6001Z" fill="white"/>
<path d="M19.5342 14.2258C19.5342 14.4766 19.7082 14.6938 19.953 14.7486C20.8198 14.9423 21.5977 15.3916 22.2026 16.0479C22.307 16.1611 22.4509 16.2206 22.5968 16.2206C22.6883 16.2206 22.7807 16.1971 22.8644 16.1488L24.7523 15.0588C24.8877 14.9806 24.9822 14.8472 25.011 14.6935C25.0397 14.5398 24.9999 14.3811 24.902 14.2593C23.7094 12.7758 22.0221 11.8013 20.1508 11.5154C19.9964 11.4919 19.8394 11.5368 19.7208 11.6385C19.6022 11.7403 19.5342 11.8887 19.5342 12.0449V14.2258ZM20.6056 12.6996C21.7617 12.9932 22.8122 13.6005 23.6489 14.4588L22.6849 15.0153C22.0881 14.4619 21.3809 14.0534 20.6056 13.8142V12.6996Z" fill="white"/>
<path d="M13.2455 15.0589L15.1333 16.1488C15.217 16.1972 15.3094 16.2206 15.401 16.2206C15.5468 16.2206 15.6907 16.1611 15.7951 16.048C16.4 15.3916 17.1779 14.9424 18.0446 14.7486C18.2894 14.6939 18.4635 14.4766 18.4635 14.2258V12.045C18.4635 11.8888 18.3953 11.7404 18.2768 11.6386C18.1583 11.5369 18.0014 11.4918 17.8469 11.5154C15.9756 11.8014 14.2884 12.7758 13.0958 14.2593C12.9978 14.3813 12.9579 14.5398 12.9867 14.6935C13.0155 14.8472 13.11 14.9807 13.2455 15.0589ZM17.3922 12.6996V13.8142C16.6168 14.0535 15.9096 14.4619 15.3128 15.0153L14.3487 14.4588C15.1855 13.6005 16.2362 12.9932 17.3922 12.6996Z" fill="white"/>
<path d="M18.4634 23.7731C18.4634 23.5223 18.2893 23.3051 18.0446 23.2503C17.1778 23.0566 16.3999 22.6073 15.795 21.951C15.6252 21.7667 15.3503 21.7248 15.1333 21.8501L13.2454 22.9401C13.11 23.0183 13.0155 23.1517 12.9867 23.3054C12.9579 23.4591 12.9978 23.6178 13.0958 23.7396C14.2884 25.2231 15.9756 26.1976 17.8469 26.4835C17.8738 26.4876 17.9009 26.4896 17.9278 26.4896C18.0549 26.4896 18.179 26.4444 18.2768 26.3604C18.3953 26.2586 18.4635 26.1102 18.4635 25.9539V23.7731H18.4634ZM17.392 25.2993C16.2361 25.0057 15.1854 24.3984 14.3486 23.5401L15.3127 22.9836C15.9096 23.537 16.6167 23.9455 17.3921 24.1847V25.2993H17.392Z" fill="white"/>
<path d="M20.1199 7.19568C19.9692 7.18168 19.8207 7.23146 19.7092 7.33296C19.5977 7.43446 19.5342 7.57824 19.5342 7.72902V9.88358C19.5342 10.1555 19.738 10.3843 20.008 10.4157C22.3519 10.6883 24.5096 11.9341 25.9282 13.8338C26.0326 13.9737 26.1936 14.0491 26.3578 14.0491C26.4491 14.0491 26.5413 14.0258 26.6253 13.9773L28.4916 12.8998C28.6223 12.8243 28.7152 12.6972 28.7472 12.5497C28.7792 12.4022 28.7476 12.2479 28.66 12.125C26.6563 9.31374 23.5436 7.51717 20.1199 7.19568ZM26.4916 12.8174C25.0033 11.0175 22.9 9.80308 20.6056 9.41874V8.33371C23.2929 8.73576 25.7298 10.1429 27.4313 12.2748L26.4916 12.8174Z" fill="white"/>
</g>
<defs>
<clipPath id="clip0_548_3809">
<rect width="36.57" height="36.57" fill="white" transform="translate(0.713867 0.714355)"/>
</clipPath>
</defs>
</svg>
