<svg width="38" height="38" viewBox="0 0 38 38" fill="none" xmlns="http://www.w3.org/2000/svg">
<g clip-path="url(#clip0_548_3894)">
<path d="M36.7873 29.7131L22.3795 4.40607C20.9117 1.82782 17.0882 1.82725 15.62 4.40607L14.8277 5.79786C14.4957 6.38094 15.4126 6.93807 15.7596 6.32839L16.5519 4.93668C17.614 3.07098 20.3854 3.07105 21.4475 4.93668L35.8554 30.2436C36.9104 32.0968 35.5299 34.454 33.4076 34.454H4.59211C2.46975 34.454 1.08926 32.0968 2.14425 30.2436L14.3639 8.77982C14.6959 8.19674 13.7792 7.63968 13.432 8.24928L1.2123 29.7131C-0.239255 32.2627 1.66655 35.5263 4.59203 35.5263H33.4075C36.3329 35.5264 38.2391 32.2632 36.7873 29.7131Z" fill="white"/>
<path d="M31.6234 27.2673C31.8807 27.1208 31.9705 26.7935 31.824 26.536L19.9876 5.74558C19.5646 4.99907 18.4421 4.99278 18.0147 5.74372L3.60726 31.0501C3.18661 31.7872 3.73666 32.7502 4.59255 32.7502H33.4086C34.2582 32.7502 34.8165 31.7931 34.3945 31.0512L33.229 29.004C32.897 28.4207 31.9499 28.9249 32.2971 29.5345L33.4625 31.5815C33.4904 31.6307 33.4527 31.6777 33.4086 31.6777H4.59262C4.54844 31.6777 4.51062 31.6308 4.53893 31.5811L18.9466 6.27433C18.9724 6.22886 19.0297 6.23043 19.0551 6.27519L30.8922 27.0667C31.0386 27.3239 31.3661 27.4138 31.6234 27.2673Z" fill="white"/>
<path d="M20.964 15.5749C20.964 14.4806 20.0828 13.5903 18.9996 13.5903C17.9164 13.5903 17.0352 14.4806 17.0352 15.5749V22.3666C17.0352 23.4609 17.9164 24.3512 18.9996 24.3512C20.0828 24.3512 20.964 23.4609 20.964 22.3666V15.5749ZM19.8917 22.3666C19.8917 22.8696 19.4914 23.2788 18.9996 23.2788C18.5077 23.2788 18.1075 22.8696 18.1075 22.3666V15.5749C18.1075 15.0719 18.5077 14.6627 18.9996 14.6627C19.4914 14.6627 19.8917 15.0719 19.8917 15.5749V22.3666Z" fill="white"/>
<path d="M18.9996 25.3188C17.9164 25.3188 17.0352 26.2091 17.0352 27.3034C17.0352 28.3978 17.9164 29.288 18.9996 29.288C20.0828 29.288 20.964 28.3978 20.964 27.3034C20.964 26.2091 20.0827 25.3188 18.9996 25.3188ZM18.9996 28.2156C18.5077 28.2156 18.1075 27.8064 18.1075 27.3034C18.1075 26.8004 18.5077 26.3911 18.9996 26.3911C19.4914 26.3911 19.8916 26.8004 19.8916 27.3034C19.8916 27.8064 19.4914 28.2156 18.9996 28.2156Z" fill="white"/>
<path d="M30.0764 11.7346C31.8732 12.1425 33.0178 13.9382 32.6277 15.7375C32.488 16.3829 33.5205 16.6809 33.6758 15.9647C34.1897 13.5931 32.6816 11.2264 30.3137 10.6889C29.6595 10.5398 29.3923 11.5793 30.0764 11.7346Z" fill="white"/>
<path d="M30.8107 8.74494C34.2188 9.51848 36.3896 12.9244 35.6498 16.3374C35.51 16.9827 36.5426 17.2809 36.6978 16.5646C37.5617 12.5794 35.0272 8.60232 31.0481 7.69917C30.3938 7.54997 30.1267 8.58959 30.8107 8.74494Z" fill="white"/>
<path d="M4.32513 15.965C4.47004 16.6333 5.52024 16.4165 5.37319 15.7378C4.9832 13.9385 6.12777 12.1428 7.92456 11.7348C8.57884 11.5863 8.37109 10.533 7.68721 10.6891C5.31935 11.2266 3.81111 13.5933 4.32513 15.965Z" fill="white"/>
<path d="M1.82528 16.9869C2.16007 16.9869 2.42158 16.6683 2.3498 16.3371C1.60994 12.9241 3.78084 9.51814 7.18889 8.7446C7.84317 8.59605 7.63542 7.54277 6.95154 7.69883C2.97235 8.60198 0.437922 12.579 1.30175 16.5643C1.35622 16.8154 1.57835 16.9869 1.82528 16.9869Z" fill="white"/>
</g>
<defs>
<clipPath id="clip0_548_3894">
<rect width="36.57" height="36.57" fill="white" transform="translate(0.714844 0.714355)"/>
</clipPath>
</defs>
</svg>
