<svg width="38" height="38" viewBox="0 0 38 38" fill="none" xmlns="http://www.w3.org/2000/svg">
<g clip-path="url(#clip0_548_3859)">
<path d="M36.2124 30.856C35.6207 30.856 35.141 31.3357 35.141 31.9273V35.1415H31.9269C31.3352 35.1415 30.8555 35.6212 30.8555 36.2129C30.8555 36.8046 31.3352 37.2843 31.9269 37.2843H36.2124C36.8041 37.2843 37.2838 36.8046 37.2838 36.2129V31.9273C37.2838 31.3357 36.8041 30.856 36.2124 30.856Z" fill="white"/>
<path d="M6.0708 35.1415H2.85664V31.9273C2.85664 31.3357 2.37695 30.856 1.78525 30.856C1.19356 30.856 0.713867 31.3357 0.713867 31.9273V36.2129C0.713867 36.8046 1.19356 37.2843 1.78525 37.2843H6.0708C6.66249 37.2843 7.14219 36.8046 7.14219 36.2129C7.14219 35.6212 6.66249 35.1415 6.0708 35.1415Z" fill="white"/>
<path d="M36.2124 0.714355H31.9269C31.3352 0.714355 30.8555 1.19405 30.8555 1.78574C30.8555 2.37743 31.3352 2.85713 31.9269 2.85713H35.141V6.07129C35.141 6.66298 35.6207 7.14268 36.2124 7.14268C36.8041 7.14268 37.2838 6.66298 37.2838 6.07129V1.78574C37.2838 1.19405 36.8041 0.714355 36.2124 0.714355Z" fill="white"/>
<path d="M1.78525 7.14268C2.37695 7.14268 2.85664 6.66298 2.85664 6.07129V2.85713H6.0708C6.66249 2.85713 7.14219 2.37743 7.14219 1.78574C7.14219 1.19405 6.66249 0.714355 6.0708 0.714355H1.78525C1.19356 0.714355 0.713867 1.19405 0.713867 1.78574V6.07129C0.713867 6.66298 1.19356 7.14268 1.78525 7.14268Z" fill="white"/>
<path d="M31.7753 13.8612C27.5231 10.951 23.1084 9.3934 19.0084 9.35704C19.002 9.3569 18.9957 9.3569 18.9893 9.35704C14.8893 9.3934 10.4746 10.9509 6.22238 13.8612C3.04022 16.0393 1.0743 18.1883 0.99216 18.2788C0.621103 18.6874 0.621103 19.3109 0.99216 19.7195C1.0743 19.81 3.04015 21.959 6.22238 24.1371C10.4746 27.0473 14.8893 28.6049 18.9893 28.6413C18.9925 28.6414 18.9957 28.6414 18.9988 28.6414C19.002 28.6414 19.0052 28.6414 19.0083 28.6413C23.1083 28.6049 27.5231 27.0474 31.7752 24.1371C34.9575 21.9591 36.9233 19.81 37.0055 19.7195C37.3765 19.3109 37.3765 18.6874 37.0055 18.2788C36.9235 18.1883 34.9575 16.0393 31.7753 13.8612ZM18.9989 26.4989C14.8635 26.4989 11.4992 23.1345 11.4992 18.9992C11.4992 14.8638 14.8635 11.4995 18.9989 11.4995C23.1342 11.4995 26.4986 14.8638 26.4986 18.9992C26.4986 23.1345 23.1342 26.4989 18.9989 26.4989ZM3.29143 18.9992C4.10232 18.2166 5.56491 16.9032 7.47605 15.5999C8.48615 14.911 9.70403 14.1721 11.0732 13.5138C9.99124 15.0719 9.3564 16.9627 9.3564 18.9992C9.3564 21.0362 9.99209 22.927 11.0744 24.4855C9.70468 23.8268 8.48651 23.0875 7.47605 22.3984C5.5647 21.095 4.10211 19.7816 3.29143 18.9992ZM30.5217 22.3984C29.511 23.0876 28.2924 23.8273 26.9224 24.4861C28.0051 22.9275 28.6414 21.0366 28.6414 18.9992C28.6414 16.9627 28.0066 15.0718 26.9246 13.5137C28.2938 14.1721 29.5115 14.911 30.5217 15.5999C32.4331 16.9033 33.8957 18.2167 34.7063 18.9992C33.8955 19.7818 32.4329 21.0951 30.5217 22.3984Z" fill="white"/>
<path d="M18.9991 14.3564C16.4391 14.3564 14.3564 16.4391 14.3564 18.9991C14.3564 21.5591 16.4391 23.6418 18.9991 23.6418C21.5591 23.6418 23.6418 21.5591 23.6418 18.9991C23.6418 16.4391 21.5591 14.3564 18.9991 14.3564ZM18.9991 21.499C17.6207 21.499 16.4992 20.3776 16.4992 18.9991C16.4992 17.6207 17.6207 16.4992 18.9991 16.4992C20.3776 16.4992 21.499 17.6207 21.499 18.9991C21.499 20.3776 20.3776 21.499 18.9991 21.499Z" fill="white"/>
</g>
<defs>
<clipPath id="clip0_548_3859">
<rect width="36.57" height="36.57" fill="white" transform="translate(0.713867 0.714355)"/>
</clipPath>
</defs>
</svg>
