<svg width="37" height="38" viewBox="0 0 37 38" fill="none" xmlns="http://www.w3.org/2000/svg">
<g clip-path="url(#clip0_548_3927)">
<path d="M18.6666 0.897461C8.68299 0.897461 0.564453 9.016 0.564453 18.9996C0.564453 28.9832 8.68299 37.1018 18.6666 37.1018C28.6502 37.1018 36.7688 28.9832 36.7688 18.9996C36.7688 9.016 28.6502 0.897461 18.6666 0.897461ZM10.9138 33.335C10.9138 32.8231 11.316 32.4208 11.828 32.4208C12.34 32.4208 12.7423 32.8231 12.7423 33.335C12.7423 33.847 12.34 34.2493 11.828 34.2493C11.316 34.2493 10.9138 33.847 10.9138 33.335ZM12.9617 35.0173C13.4737 34.6516 13.8394 34.0299 13.8394 33.3716C13.8394 32.2745 12.9251 31.3603 11.828 31.3603C10.7309 31.3603 9.81666 32.2745 9.81666 33.3716V33.5179C9.34125 33.2253 8.86584 32.8962 8.427 32.5671L16.5821 19.4385C16.7284 19.1825 16.6553 18.8533 16.3993 18.6705C16.1433 18.5242 15.8141 18.5973 15.6313 18.8533L13.7297 21.9252V18.2682C13.7297 15.562 15.9604 13.3313 18.6666 13.3313C21.3728 13.3313 23.6036 15.562 23.6036 18.2682V21.9252L21.7019 18.8533C21.5556 18.5973 21.1899 18.5242 20.9339 18.6705C20.678 18.8168 20.6048 19.1825 20.7511 19.4385L24.8104 25.9845C24.2252 26.3502 23.8595 26.9719 23.8595 27.7033C23.8595 28.8004 24.7738 29.7146 25.8709 29.7146C26.2732 29.7146 26.6389 29.6049 26.9314 29.4221L28.9062 32.6037C28.1382 33.1888 27.3337 33.7008 26.4926 34.1396C26.4926 34.0665 26.5292 33.9567 26.5292 33.8836C26.5292 32.7865 25.6149 31.8722 24.5178 31.8722C23.4207 31.8722 22.5065 32.7865 22.5065 33.8836C22.5065 34.5053 22.799 35.0904 23.2379 35.4561C21.7751 35.8584 20.2391 36.0778 18.6666 36.0778C16.6553 36.0047 14.717 35.639 12.9617 35.0173ZM22.5796 13.6604L23.8595 11.4296C24.8469 12.1976 25.688 13.185 26.2732 14.2821L24.0424 15.562C23.6767 14.8306 23.1647 14.2089 22.5796 13.6604ZM21.6653 13.0387C20.9339 12.5999 20.0928 12.3439 19.2152 12.2707V9.71083C20.5682 9.78397 21.8482 10.1862 22.9453 10.8445L21.6653 13.0387ZM18.1181 12.2707C17.2404 12.3439 16.3993 12.6364 15.6679 13.0387L14.3879 10.8079C15.485 10.1862 16.765 9.78397 18.1181 9.67426V12.2707ZM13.4737 11.4296L14.7536 13.6604C14.1319 14.1724 13.6199 14.8306 13.2542 15.562L11.0235 14.2821C11.6452 13.1484 12.4863 12.1976 13.4737 11.4296ZM10.0727 18.2682C10.0727 17.2077 10.2555 16.2203 10.5846 15.306L12.852 16.6226C12.7057 17.1345 12.596 17.7197 12.596 18.2682V18.7802H10.0361V18.2682H10.0727ZM25.9075 28.5809C25.3955 28.5809 24.9932 28.1787 24.9932 27.6667C24.9932 27.1547 25.3955 26.7525 25.9075 26.7525C26.4194 26.7525 26.8217 27.1547 26.8217 27.6667C26.8217 28.1787 26.3829 28.5809 25.9075 28.5809ZM23.6036 33.8105C23.6036 33.2985 24.0058 32.8962 24.5178 32.8962C25.0298 32.8962 25.4321 33.2985 25.4321 33.8105C25.4321 34.3224 25.0298 34.7247 24.5178 34.7247C24.0058 34.7247 23.6036 34.3224 23.6036 33.8105ZM29.7839 31.8722L27.6994 28.5444C27.8091 28.2884 27.8822 27.9958 27.8822 27.7033C27.8822 26.6062 27.0046 25.7285 25.9075 25.6919L24.6275 23.6074C24.6641 23.5343 24.6641 23.4612 24.6641 23.388V18.2682C24.6641 17.6831 24.5909 17.1345 24.4081 16.6226L26.6754 15.306C27.0046 16.2203 27.1874 17.2443 27.1874 18.2682V23.388C27.1874 23.6806 27.4434 23.9366 27.736 23.9366C28.0285 23.9366 28.2845 23.6806 28.2845 23.388V18.2682C28.2845 12.929 23.9327 8.57716 18.5935 8.57716C13.2542 8.57716 8.97555 12.929 8.97555 18.2682V23.388C8.97555 23.6806 9.23154 23.9366 9.5241 23.9366C9.81666 23.9366 10.0727 23.6806 10.0727 23.388V19.8773H12.6326V23.388C12.6326 23.4612 12.6326 23.5343 12.6691 23.6074L7.54932 31.8357C3.96546 28.7272 1.66155 24.1194 1.66155 18.9996C1.66155 9.63769 9.30468 1.99456 18.6666 1.99456C28.0285 1.99456 35.6717 9.63769 35.6717 18.9996C35.6717 24.1194 33.3677 28.7272 29.7839 31.8722Z" fill="white"/>
<path d="M16.1794 25.9477C16.4824 25.9477 16.728 25.7021 16.728 25.3991C16.728 25.0962 16.4824 24.8506 16.1794 24.8506C15.8765 24.8506 15.6309 25.0962 15.6309 25.3991C15.6309 25.7021 15.8765 25.9477 16.1794 25.9477Z" fill="white"/>
<path d="M20.2028 21.9618C20.5058 21.9618 20.7514 21.7163 20.7514 21.4133C20.7514 21.1103 20.5058 20.8647 20.2028 20.8647C19.8999 20.8647 19.6543 21.1103 19.6543 21.4133C19.6543 21.7163 19.8999 21.9618 20.2028 21.9618Z" fill="white"/>
<path d="M17.4236 23.1684C17.7265 23.1684 17.9721 22.9228 17.9721 22.6198C17.9721 22.3169 17.7265 22.0713 17.4236 22.0713C17.1206 22.0713 16.875 22.3169 16.875 22.6198C16.875 22.9228 17.1206 23.1684 17.4236 23.1684Z" fill="white"/>
<path d="M15.7048 30.7387C16.0078 30.7387 16.2534 30.4931 16.2534 30.1902C16.2534 29.8872 16.0078 29.6416 15.7048 29.6416C15.4018 29.6416 15.1562 29.8872 15.1562 30.1902C15.1562 30.4931 15.4018 30.7387 15.7048 30.7387Z" fill="white"/>
<path d="M21.0798 26.35C21.3828 26.35 21.6284 26.1044 21.6284 25.8015C21.6284 25.4985 21.3828 25.2529 21.0798 25.2529C20.7768 25.2529 20.5312 25.4985 20.5312 25.8015C20.5312 26.1044 20.7768 26.35 21.0798 26.35Z" fill="white"/>
<path d="M18.74 35.1269C19.0429 35.1269 19.2885 34.8813 19.2885 34.5783C19.2885 34.2754 19.0429 34.0298 18.74 34.0298C18.437 34.0298 18.1914 34.2754 18.1914 34.5783C18.1914 34.8813 18.437 35.1269 18.74 35.1269Z" fill="white"/>
<path d="M20.568 28.1787C19.4709 28.1787 18.5566 29.093 18.5566 30.1901C18.5566 31.2872 19.4709 32.2014 20.568 32.2014C21.6651 32.2014 22.5793 31.2872 22.5793 30.1901C22.5793 29.093 21.7017 28.1787 20.568 28.1787ZM20.568 31.1043C20.056 31.1043 19.6537 30.702 19.6537 30.1901C19.6537 29.6781 20.056 29.2758 20.568 29.2758C21.08 29.2758 21.4822 29.6781 21.4822 30.1901C21.4822 30.702 21.08 31.1043 20.568 31.1043Z" fill="white"/>
</g>
<defs>
<clipPath id="clip0_548_3927">
<rect width="36.57" height="36.57" fill="white" transform="translate(0.380859 0.714844)"/>
</clipPath>
</defs>
</svg>
